<mxfile host="Electron" modified="2024-04-01T21:47:05.922Z" agent="Mozilla/5.0 (Windows NT 10.0; Win64; x64) AppleWebKit/537.36 (KHTML, like Gecko) draw.io/24.1.0 Chrome/120.0.6099.109 Electron/28.1.0 Safari/537.36" etag="B-Kzi8IMwGEYUedsVJS4" version="24.1.0" type="device">
  <diagram name="Página-1" id="_y6uXY5jQpzMCenl6H3N">
    <mxGraphModel dx="2247" dy="1999" grid="1" gridSize="10" guides="1" tooltips="1" connect="1" arrows="1" fold="1" page="1" pageScale="1" pageWidth="827" pageHeight="1169" background="#CCE5FF" math="0" shadow="0">
      <root>
        <mxCell id="0" />
        <mxCell id="1" parent="0" />
        <mxCell id="60KGcx6HvtttfVHuBGyP-1" value="&lt;p style=&quot;line-height: 81%;&quot;&gt;&lt;b style=&quot;font-size: 16px;&quot;&gt;&lt;font style=&quot;font-size: 16px;&quot; color=&quot;#000000&quot; face=&quot;Comic Sans MS&quot;&gt;21&lt;br&gt;&lt;br&gt;Una marroquinería dispone de 45 carteras blancas, 50 carteras negras, 40 marrones y 49 grises. Se pide hacer un programa donde se ingresen tres ventas. Cada venta está compuesta por:&lt;br&gt;&lt;br&gt;&lt;br&gt;Cantidad de carteras&lt;br&gt;&lt;br&gt;Tipo de cartera (1 - Blanco, 2 - Negro, 3- Marrón, 4 - Gris)&lt;br&gt;&lt;br&gt;&lt;br&gt;Calcular e informar:&lt;br&gt;&lt;br&gt;Cantidad total de carteras vendidas en total.&lt;br&gt;&lt;br&gt;Cuántas carteras quedaron de cada tipo.&lt;br&gt;&lt;br&gt;Los colores de carteras que no se vendieron.&lt;br&gt;&lt;br&gt;NOTA: Ninguna venta superará las 10 carteras.&lt;/font&gt;&lt;/b&gt;&lt;/p&gt;" style="text;whiteSpace=wrap;html=1;fontFamily=Architects Daughter;fontSource=https%3A%2F%2Ffonts.googleapis.com%2Fcss%3Ffamily%3DArchitects%2BDaughter;" vertex="1" parent="1">
          <mxGeometry x="80" y="-20" width="690" height="290" as="geometry" />
        </mxCell>
        <mxCell id="60KGcx6HvtttfVHuBGyP-364" value="" style="group;aspect=fixed;" vertex="1" connectable="0" parent="1">
          <mxGeometry x="-280" y="310" width="1290" height="2633" as="geometry" />
        </mxCell>
        <mxCell id="60KGcx6HvtttfVHuBGyP-8" value="" style="group" vertex="1" connectable="0" parent="60KGcx6HvtttfVHuBGyP-364">
          <mxGeometry x="575" width="50" height="40" as="geometry" />
        </mxCell>
        <mxCell id="60KGcx6HvtttfVHuBGyP-2" value="" style="strokeWidth=2;html=1;shape=mxgraph.flowchart.start_2;whiteSpace=wrap;rounded=0;labelBackgroundColor=none;strokeColor=#000000;align=center;verticalAlign=middle;fontFamily=Helvetica;fontSize=12;fontColor=default;fillColor=#d5e8d4;aspect=fixed;" vertex="1" parent="60KGcx6HvtttfVHuBGyP-8">
          <mxGeometry x="5" width="40" height="40" as="geometry" />
        </mxCell>
        <mxCell id="60KGcx6HvtttfVHuBGyP-6" value="&lt;font color=&quot;#000000&quot; face=&quot;Comic Sans MS&quot; style=&quot;font-size: 17px;&quot;&gt;&lt;b&gt;I&lt;/b&gt;&lt;/font&gt;" style="text;strokeColor=none;align=center;fillColor=none;html=1;verticalAlign=middle;whiteSpace=wrap;rounded=0;fontFamily=Architects Daughter;fontSource=https%3A%2F%2Ffonts.googleapis.com%2Fcss%3Ffamily%3DArchitects%2BDaughter;aspect=fixed;" vertex="1" parent="60KGcx6HvtttfVHuBGyP-8">
          <mxGeometry y="5" width="50" height="30" as="geometry" />
        </mxCell>
        <mxCell id="60KGcx6HvtttfVHuBGyP-9" value="" style="group" vertex="1" connectable="0" parent="60KGcx6HvtttfVHuBGyP-364">
          <mxGeometry x="575" y="2593" width="50" height="40" as="geometry" />
        </mxCell>
        <mxCell id="60KGcx6HvtttfVHuBGyP-3" value="" style="strokeWidth=2;html=1;shape=mxgraph.flowchart.start_2;whiteSpace=wrap;rounded=0;labelBackgroundColor=none;strokeColor=#000000;align=center;verticalAlign=middle;fontFamily=Helvetica;fontSize=12;fontColor=default;fillColor=#d5e8d4;aspect=fixed;" vertex="1" parent="60KGcx6HvtttfVHuBGyP-9">
          <mxGeometry x="5" width="40" height="40" as="geometry" />
        </mxCell>
        <mxCell id="60KGcx6HvtttfVHuBGyP-7" value="&lt;font color=&quot;#000000&quot; face=&quot;Comic Sans MS&quot; style=&quot;font-size: 17px;&quot;&gt;&lt;b&gt;F&lt;/b&gt;&lt;/font&gt;" style="text;strokeColor=none;align=center;fillColor=none;html=1;verticalAlign=middle;whiteSpace=wrap;rounded=0;fontFamily=Architects Daughter;fontSource=https://fonts.googleapis.com/css?family=Architects+Daughter;aspect=fixed;" vertex="1" parent="60KGcx6HvtttfVHuBGyP-9">
          <mxGeometry y="5" width="50" height="30" as="geometry" />
        </mxCell>
        <mxCell id="60KGcx6HvtttfVHuBGyP-11" value="" style="group;aspect=fixed;" vertex="1" connectable="0" parent="60KGcx6HvtttfVHuBGyP-364">
          <mxGeometry x="520" y="70" width="160" height="40" as="geometry" />
        </mxCell>
        <mxCell id="60KGcx6HvtttfVHuBGyP-4" value="" style="shape=trapezoid;perimeter=trapezoidPerimeter;whiteSpace=wrap;html=1;fixedSize=1;rounded=0;labelBackgroundColor=none;strokeColor=#121211;strokeWidth=2;align=center;verticalAlign=middle;fontFamily=Helvetica;fontSize=12;fontColor=default;fillColor=#d5e8d4;direction=west;container=0;aspect=fixed;" vertex="1" parent="60KGcx6HvtttfVHuBGyP-11">
          <mxGeometry width="160" height="40" as="geometry">
            <mxRectangle x="-1020" y="-650" width="50" height="40" as="alternateBounds" />
          </mxGeometry>
        </mxCell>
        <mxCell id="60KGcx6HvtttfVHuBGyP-10" value="&lt;font face=&quot;Comic Sans MS&quot; color=&quot;#000000&quot;&gt;&lt;span style=&quot;font-size: 15px;&quot;&gt;&lt;b&gt;tipo_carteras&lt;/b&gt;&lt;/span&gt;&lt;/font&gt;" style="text;strokeColor=none;align=center;fillColor=none;html=1;verticalAlign=middle;whiteSpace=wrap;rounded=0;fontFamily=Architects Daughter;fontSource=https%3A%2F%2Ffonts.googleapis.com%2Fcss%3Ffamily%3DArchitects%2BDaughter;aspect=fixed;container=0;" vertex="1" parent="60KGcx6HvtttfVHuBGyP-11">
          <mxGeometry x="25" width="110" height="40" as="geometry" />
        </mxCell>
        <mxCell id="60KGcx6HvtttfVHuBGyP-55" value="" style="line;strokeWidth=2;direction=south;html=1;hachureGap=4;fontFamily=Architects Daughter;fontSource=https://fonts.googleapis.com/css?family=Architects+Daughter;strokeColor=#000000;" vertex="1" parent="60KGcx6HvtttfVHuBGyP-11">
          <mxGeometry x="75" y="-30" width="10" height="30" as="geometry" />
        </mxCell>
        <mxCell id="60KGcx6HvtttfVHuBGyP-58" value="" style="line;strokeWidth=2;direction=south;html=1;hachureGap=4;fontFamily=Architects Daughter;fontSource=https://fonts.googleapis.com/css?family=Architects+Daughter;strokeColor=#000000;" vertex="1" parent="60KGcx6HvtttfVHuBGyP-364">
          <mxGeometry x="595" y="110" width="10" height="40" as="geometry" />
        </mxCell>
        <mxCell id="60KGcx6HvtttfVHuBGyP-103" value="" style="line;strokeWidth=2;direction=south;html=1;hachureGap=4;fontFamily=Architects Daughter;fontSource=https://fonts.googleapis.com/css?family=Architects+Daughter;strokeColor=#000000;" vertex="1" parent="60KGcx6HvtttfVHuBGyP-364">
          <mxGeometry x="753" y="1420" width="10" height="30" as="geometry" />
        </mxCell>
        <mxCell id="60KGcx6HvtttfVHuBGyP-104" value="" style="line;strokeWidth=2;direction=south;html=1;hachureGap=4;fontFamily=Architects Daughter;fontSource=https://fonts.googleapis.com/css?family=Architects+Daughter;strokeColor=#000000;" vertex="1" parent="60KGcx6HvtttfVHuBGyP-364">
          <mxGeometry x="753" y="1340" width="10" height="40" as="geometry" />
        </mxCell>
        <mxCell id="60KGcx6HvtttfVHuBGyP-105" value="" style="line;strokeWidth=2;direction=south;html=1;hachureGap=4;fontFamily=Architects Daughter;fontSource=https://fonts.googleapis.com/css?family=Architects+Daughter;strokeColor=#000000;" vertex="1" parent="60KGcx6HvtttfVHuBGyP-364">
          <mxGeometry x="437" y="1338" width="10" height="50" as="geometry" />
        </mxCell>
        <mxCell id="60KGcx6HvtttfVHuBGyP-107" value="" style="line;strokeWidth=2;html=1;perimeter=backbonePerimeter;points=[];outlineConnect=0;hachureGap=4;fontFamily=Architects Daughter;fontSource=https://fonts.googleapis.com/css?family=Architects+Daughter;strokeColor=#000000;" vertex="1" parent="60KGcx6HvtttfVHuBGyP-364">
          <mxGeometry x="440" y="1335" width="95" height="10" as="geometry" />
        </mxCell>
        <mxCell id="60KGcx6HvtttfVHuBGyP-108" value="" style="line;strokeWidth=2;html=1;perimeter=backbonePerimeter;points=[];outlineConnect=0;hachureGap=4;fontFamily=Architects Daughter;fontSource=https://fonts.googleapis.com/css?family=Architects+Daughter;strokeColor=#000000;" vertex="1" parent="60KGcx6HvtttfVHuBGyP-364">
          <mxGeometry x="824" y="1890" width="50" height="10" as="geometry" />
        </mxCell>
        <mxCell id="60KGcx6HvtttfVHuBGyP-109" value="" style="group;aspect=fixed;" vertex="1" connectable="0" parent="60KGcx6HvtttfVHuBGyP-364">
          <mxGeometry y="145" width="1290" height="375" as="geometry" />
        </mxCell>
        <mxCell id="60KGcx6HvtttfVHuBGyP-14" value="" style="group;aspect=fixed;" vertex="1" connectable="0" parent="60KGcx6HvtttfVHuBGyP-109">
          <mxGeometry x="545" width="110" height="110" as="geometry" />
        </mxCell>
        <mxCell id="60KGcx6HvtttfVHuBGyP-5" value="" style="rhombus;whiteSpace=wrap;html=1;rounded=0;labelBackgroundColor=none;strokeColor=#0F140C;strokeWidth=2;align=center;verticalAlign=middle;fontFamily=Helvetica;fontSize=12;fontColor=default;fillColor=#d5e8d4;aspect=fixed;" vertex="1" parent="60KGcx6HvtttfVHuBGyP-14">
          <mxGeometry width="110" height="110" as="geometry" />
        </mxCell>
        <mxCell id="60KGcx6HvtttfVHuBGyP-13" value="&lt;font color=&quot;#000000&quot; size=&quot;1&quot; face=&quot;Comic Sans MS&quot;&gt;&lt;b style=&quot;font-size: 14px;&quot;&gt;tipo_carteras&lt;/b&gt;&lt;/font&gt;" style="text;strokeColor=none;align=center;fillColor=none;html=1;verticalAlign=middle;whiteSpace=wrap;rounded=0;fontFamily=Architects Daughter;fontSource=https%3A%2F%2Ffonts.googleapis.com%2Fcss%3Ffamily%3DArchitects%2BDaughter;aspect=fixed;" vertex="1" parent="60KGcx6HvtttfVHuBGyP-14">
          <mxGeometry x="5" y="40" width="100" height="30" as="geometry" />
        </mxCell>
        <mxCell id="60KGcx6HvtttfVHuBGyP-15" value="" style="line;strokeWidth=2;html=1;perimeter=backbonePerimeter;points=[];outlineConnect=0;hachureGap=4;fontFamily=Architects Daughter;fontSource=https://fonts.googleapis.com/css?family=Architects+Daughter;strokeColor=#000000;" vertex="1" parent="60KGcx6HvtttfVHuBGyP-109">
          <mxGeometry x="150" y="110" width="1030" height="10" as="geometry" />
        </mxCell>
        <mxCell id="60KGcx6HvtttfVHuBGyP-25" value="" style="group;aspect=fixed;" vertex="1" connectable="0" parent="60KGcx6HvtttfVHuBGyP-109">
          <mxGeometry x="140" y="75" width="45" height="30" as="geometry" />
        </mxCell>
        <mxCell id="60KGcx6HvtttfVHuBGyP-19" value="" style="strokeWidth=2;html=1;shape=mxgraph.flowchart.start_2;whiteSpace=wrap;rounded=0;labelBackgroundColor=none;strokeColor=#000000;align=center;verticalAlign=middle;fontFamily=Helvetica;fontSize=12;fontColor=default;fillColor=#d5e8d4;aspect=fixed;" vertex="1" parent="60KGcx6HvtttfVHuBGyP-25">
          <mxGeometry x="7.5" width="30" height="30" as="geometry" />
        </mxCell>
        <mxCell id="60KGcx6HvtttfVHuBGyP-20" value="&lt;b&gt;&lt;font color=&quot;#000000&quot; style=&quot;font-size: 16px;&quot; face=&quot;Comic Sans MS&quot;&gt;1&lt;/font&gt;&lt;/b&gt;" style="text;strokeColor=none;align=center;fillColor=none;html=1;verticalAlign=middle;whiteSpace=wrap;rounded=0;fontFamily=Architects Daughter;fontSource=https%3A%2F%2Ffonts.googleapis.com%2Fcss%3Ffamily%3DArchitects%2BDaughter;aspect=fixed;" vertex="1" parent="60KGcx6HvtttfVHuBGyP-25">
          <mxGeometry y="3.75" width="45" height="22.5" as="geometry" />
        </mxCell>
        <mxCell id="60KGcx6HvtttfVHuBGyP-26" value="" style="group;aspect=fixed;" vertex="1" connectable="0" parent="60KGcx6HvtttfVHuBGyP-109">
          <mxGeometry x="420" y="75" width="45" height="30" as="geometry" />
        </mxCell>
        <mxCell id="60KGcx6HvtttfVHuBGyP-18" value="" style="strokeWidth=2;html=1;shape=mxgraph.flowchart.start_2;whiteSpace=wrap;rounded=0;labelBackgroundColor=none;strokeColor=#000000;align=center;verticalAlign=middle;fontFamily=Helvetica;fontSize=12;fontColor=default;fillColor=#d5e8d4;aspect=fixed;" vertex="1" parent="60KGcx6HvtttfVHuBGyP-26">
          <mxGeometry x="7.5" width="30" height="30" as="geometry" />
        </mxCell>
        <mxCell id="60KGcx6HvtttfVHuBGyP-22" value="&lt;b&gt;&lt;font color=&quot;#000000&quot; style=&quot;font-size: 16px;&quot; face=&quot;Comic Sans MS&quot;&gt;2&lt;/font&gt;&lt;/b&gt;" style="text;strokeColor=none;align=center;fillColor=none;html=1;verticalAlign=middle;whiteSpace=wrap;rounded=0;fontFamily=Architects Daughter;fontSource=https://fonts.googleapis.com/css?family=Architects+Daughter;aspect=fixed;" vertex="1" parent="60KGcx6HvtttfVHuBGyP-26">
          <mxGeometry y="3.75" width="45" height="22.5" as="geometry" />
        </mxCell>
        <mxCell id="60KGcx6HvtttfVHuBGyP-27" value="" style="group;aspect=fixed;" vertex="1" connectable="0" parent="60KGcx6HvtttfVHuBGyP-109">
          <mxGeometry x="702.5" y="75" width="45" height="30" as="geometry" />
        </mxCell>
        <mxCell id="60KGcx6HvtttfVHuBGyP-17" value="" style="strokeWidth=2;html=1;shape=mxgraph.flowchart.start_2;whiteSpace=wrap;rounded=0;labelBackgroundColor=none;strokeColor=#000000;align=center;verticalAlign=middle;fontFamily=Helvetica;fontSize=12;fontColor=default;fillColor=#d5e8d4;" vertex="1" parent="60KGcx6HvtttfVHuBGyP-27">
          <mxGeometry x="7.5" width="30" height="30" as="geometry" />
        </mxCell>
        <mxCell id="60KGcx6HvtttfVHuBGyP-23" value="&lt;b&gt;&lt;font color=&quot;#000000&quot; style=&quot;font-size: 16px;&quot; face=&quot;Comic Sans MS&quot;&gt;3&lt;/font&gt;&lt;/b&gt;" style="text;strokeColor=none;align=center;fillColor=none;html=1;verticalAlign=middle;whiteSpace=wrap;rounded=0;fontFamily=Architects Daughter;fontSource=https://fonts.googleapis.com/css?family=Architects+Daughter;" vertex="1" parent="60KGcx6HvtttfVHuBGyP-27">
          <mxGeometry y="3.75" width="45" height="22.5" as="geometry" />
        </mxCell>
        <mxCell id="60KGcx6HvtttfVHuBGyP-53" style="edgeStyle=orthogonalEdgeStyle;rounded=0;sketch=1;hachureGap=4;jiggle=2;curveFitting=1;orthogonalLoop=1;jettySize=auto;html=1;exitX=0.5;exitY=1;exitDx=0;exitDy=0;fontFamily=Architects Daughter;fontSource=https%3A%2F%2Ffonts.googleapis.com%2Fcss%3Ffamily%3DArchitects%2BDaughter;" edge="1" parent="60KGcx6HvtttfVHuBGyP-27" source="60KGcx6HvtttfVHuBGyP-23" target="60KGcx6HvtttfVHuBGyP-23">
          <mxGeometry relative="1" as="geometry" />
        </mxCell>
        <mxCell id="60KGcx6HvtttfVHuBGyP-28" value="" style="group;aspect=fixed;" vertex="1" connectable="0" parent="60KGcx6HvtttfVHuBGyP-109">
          <mxGeometry x="952.5" y="75" width="45" height="30" as="geometry" />
        </mxCell>
        <mxCell id="60KGcx6HvtttfVHuBGyP-16" value="" style="strokeWidth=2;html=1;shape=mxgraph.flowchart.start_2;whiteSpace=wrap;rounded=0;labelBackgroundColor=none;strokeColor=#000000;align=center;verticalAlign=middle;fontFamily=Helvetica;fontSize=12;fontColor=default;fillColor=#d5e8d4;" vertex="1" parent="60KGcx6HvtttfVHuBGyP-28">
          <mxGeometry x="7.5" width="30" height="30" as="geometry" />
        </mxCell>
        <mxCell id="60KGcx6HvtttfVHuBGyP-24" value="&lt;b&gt;&lt;font color=&quot;#000000&quot; style=&quot;font-size: 16px;&quot; face=&quot;Comic Sans MS&quot;&gt;4&lt;/font&gt;&lt;/b&gt;" style="text;strokeColor=none;align=center;fillColor=none;html=1;verticalAlign=middle;whiteSpace=wrap;rounded=0;fontFamily=Architects Daughter;fontSource=https://fonts.googleapis.com/css?family=Architects+Daughter;" vertex="1" parent="60KGcx6HvtttfVHuBGyP-28">
          <mxGeometry y="3.75" width="45" height="22.5" as="geometry" />
        </mxCell>
        <mxCell id="60KGcx6HvtttfVHuBGyP-31" value="" style="group;aspect=fixed;" vertex="1" connectable="0" parent="60KGcx6HvtttfVHuBGyP-109">
          <mxGeometry x="50" y="145" width="210" height="40" as="geometry" />
        </mxCell>
        <mxCell id="60KGcx6HvtttfVHuBGyP-29" value="" style="shape=trapezoid;perimeter=trapezoidPerimeter;whiteSpace=wrap;html=1;fixedSize=1;rounded=0;labelBackgroundColor=none;strokeColor=#121211;strokeWidth=2;align=center;verticalAlign=middle;fontFamily=Helvetica;fontSize=12;fontColor=default;fillColor=#d5e8d4;direction=west;container=0;aspect=fixed;" vertex="1" parent="60KGcx6HvtttfVHuBGyP-31">
          <mxGeometry y="5" width="210" height="35" as="geometry">
            <mxRectangle x="-1020" y="-650" width="50" height="40" as="alternateBounds" />
          </mxGeometry>
        </mxCell>
        <mxCell id="60KGcx6HvtttfVHuBGyP-30" value="&lt;font color=&quot;#000000&quot; size=&quot;1&quot; face=&quot;Comic Sans MS&quot;&gt;&lt;b style=&quot;font-size: 14px;&quot;&gt;venta_carteras_blancas&lt;/b&gt;&lt;/font&gt;" style="text;strokeColor=none;align=center;fillColor=none;html=1;verticalAlign=middle;whiteSpace=wrap;rounded=0;fontFamily=Architects Daughter;fontSource=https%3A%2F%2Ffonts.googleapis.com%2Fcss%3Ffamily%3DArchitects%2BDaughter;aspect=fixed;container=0;" vertex="1" parent="60KGcx6HvtttfVHuBGyP-31">
          <mxGeometry x="20" width="165" height="40" as="geometry" />
        </mxCell>
        <mxCell id="60KGcx6HvtttfVHuBGyP-32" value="" style="group;aspect=fixed;" vertex="1" connectable="0" parent="60KGcx6HvtttfVHuBGyP-109">
          <mxGeometry x="337.5" y="145" width="210" height="40" as="geometry" />
        </mxCell>
        <mxCell id="60KGcx6HvtttfVHuBGyP-33" value="" style="shape=trapezoid;perimeter=trapezoidPerimeter;whiteSpace=wrap;html=1;fixedSize=1;rounded=0;labelBackgroundColor=none;strokeColor=#121211;strokeWidth=2;align=center;verticalAlign=middle;fontFamily=Helvetica;fontSize=12;fontColor=default;fillColor=#d5e8d4;direction=west;container=0;aspect=fixed;" vertex="1" parent="60KGcx6HvtttfVHuBGyP-32">
          <mxGeometry y="5" width="210" height="35" as="geometry">
            <mxRectangle x="-1020" y="-650" width="50" height="40" as="alternateBounds" />
          </mxGeometry>
        </mxCell>
        <mxCell id="60KGcx6HvtttfVHuBGyP-34" value="&lt;font color=&quot;#000000&quot; size=&quot;1&quot; face=&quot;Comic Sans MS&quot;&gt;&lt;b style=&quot;font-size: 14px;&quot;&gt;venta_carteras_negras&lt;/b&gt;&lt;/font&gt;" style="text;strokeColor=none;align=center;fillColor=none;html=1;verticalAlign=middle;whiteSpace=wrap;rounded=0;fontFamily=Architects Daughter;fontSource=https://fonts.googleapis.com/css?family=Architects+Daughter;aspect=fixed;container=0;" vertex="1" parent="60KGcx6HvtttfVHuBGyP-32">
          <mxGeometry x="20" width="165" height="40" as="geometry" />
        </mxCell>
        <mxCell id="60KGcx6HvtttfVHuBGyP-52" style="edgeStyle=orthogonalEdgeStyle;rounded=0;sketch=1;hachureGap=4;jiggle=2;curveFitting=1;orthogonalLoop=1;jettySize=auto;html=1;exitX=0.5;exitY=1;exitDx=0;exitDy=0;fontFamily=Architects Daughter;fontSource=https%3A%2F%2Ffonts.googleapis.com%2Fcss%3Ffamily%3DArchitects%2BDaughter;" edge="1" parent="60KGcx6HvtttfVHuBGyP-32" source="60KGcx6HvtttfVHuBGyP-34" target="60KGcx6HvtttfVHuBGyP-34">
          <mxGeometry relative="1" as="geometry" />
        </mxCell>
        <mxCell id="60KGcx6HvtttfVHuBGyP-56" value="" style="line;strokeWidth=2;direction=south;html=1;hachureGap=4;fontFamily=Architects Daughter;fontSource=https://fonts.googleapis.com/css?family=Architects+Daughter;strokeColor=#000000;" vertex="1" parent="60KGcx6HvtttfVHuBGyP-32">
          <mxGeometry x="97.5" y="-33" width="10" height="40" as="geometry" />
        </mxCell>
        <mxCell id="60KGcx6HvtttfVHuBGyP-35" value="" style="group;aspect=fixed;" vertex="1" connectable="0" parent="60KGcx6HvtttfVHuBGyP-109">
          <mxGeometry x="620" y="145" width="210" height="40" as="geometry" />
        </mxCell>
        <mxCell id="60KGcx6HvtttfVHuBGyP-36" value="" style="shape=trapezoid;perimeter=trapezoidPerimeter;whiteSpace=wrap;html=1;fixedSize=1;rounded=0;labelBackgroundColor=none;strokeColor=#121211;strokeWidth=2;align=center;verticalAlign=middle;fontFamily=Helvetica;fontSize=12;fontColor=default;fillColor=#d5e8d4;direction=west;container=0;aspect=fixed;" vertex="1" parent="60KGcx6HvtttfVHuBGyP-35">
          <mxGeometry y="5" width="210" height="35" as="geometry">
            <mxRectangle x="-1020" y="-650" width="50" height="40" as="alternateBounds" />
          </mxGeometry>
        </mxCell>
        <mxCell id="60KGcx6HvtttfVHuBGyP-37" value="&lt;font color=&quot;#000000&quot; size=&quot;1&quot; face=&quot;Comic Sans MS&quot;&gt;&lt;b style=&quot;font-size: 14px;&quot;&gt;venta_carteras_marron&lt;/b&gt;&lt;/font&gt;" style="text;strokeColor=none;align=center;fillColor=none;html=1;verticalAlign=middle;whiteSpace=wrap;rounded=0;fontFamily=Architects Daughter;fontSource=https://fonts.googleapis.com/css?family=Architects+Daughter;aspect=fixed;container=0;" vertex="1" parent="60KGcx6HvtttfVHuBGyP-35">
          <mxGeometry x="20" width="165" height="40" as="geometry" />
        </mxCell>
        <mxCell id="60KGcx6HvtttfVHuBGyP-57" value="" style="line;strokeWidth=2;direction=south;html=1;hachureGap=4;fontFamily=Architects Daughter;fontSource=https://fonts.googleapis.com/css?family=Architects+Daughter;strokeColor=#000000;" vertex="1" parent="60KGcx6HvtttfVHuBGyP-35">
          <mxGeometry x="100" y="-30" width="10" height="30" as="geometry" />
        </mxCell>
        <mxCell id="60KGcx6HvtttfVHuBGyP-38" value="" style="group;aspect=fixed;" vertex="1" connectable="0" parent="60KGcx6HvtttfVHuBGyP-109">
          <mxGeometry x="870" y="145" width="210" height="40" as="geometry" />
        </mxCell>
        <mxCell id="60KGcx6HvtttfVHuBGyP-39" value="" style="shape=trapezoid;perimeter=trapezoidPerimeter;whiteSpace=wrap;html=1;fixedSize=1;rounded=0;labelBackgroundColor=none;strokeColor=#121211;strokeWidth=2;align=center;verticalAlign=middle;fontFamily=Helvetica;fontSize=12;fontColor=default;fillColor=#d5e8d4;direction=west;container=0;aspect=fixed;" vertex="1" parent="60KGcx6HvtttfVHuBGyP-38">
          <mxGeometry y="5" width="210" height="35" as="geometry">
            <mxRectangle x="-1020" y="-650" width="50" height="40" as="alternateBounds" />
          </mxGeometry>
        </mxCell>
        <mxCell id="60KGcx6HvtttfVHuBGyP-40" value="&lt;font color=&quot;#000000&quot; size=&quot;1&quot; face=&quot;Comic Sans MS&quot;&gt;&lt;b style=&quot;font-size: 14px;&quot;&gt;venta_carteras_gris&lt;/b&gt;&lt;/font&gt;" style="text;strokeColor=none;align=center;fillColor=none;html=1;verticalAlign=middle;whiteSpace=wrap;rounded=0;fontFamily=Architects Daughter;fontSource=https://fonts.googleapis.com/css?family=Architects+Daughter;aspect=fixed;container=0;" vertex="1" parent="60KGcx6HvtttfVHuBGyP-38">
          <mxGeometry x="20" width="165" height="40" as="geometry" />
        </mxCell>
        <mxCell id="60KGcx6HvtttfVHuBGyP-46" value="" style="group;aspect=fixed;" vertex="1" connectable="0" parent="60KGcx6HvtttfVHuBGyP-109">
          <mxGeometry x="1090" y="145" width="200" height="40" as="geometry" />
        </mxCell>
        <mxCell id="60KGcx6HvtttfVHuBGyP-44" value="" style="shape=trapezoid;perimeter=trapezoidPerimeter;whiteSpace=wrap;html=1;fixedSize=1;rounded=0;labelBackgroundColor=none;strokeColor=#0F140C;strokeWidth=2;align=center;verticalAlign=middle;fontFamily=Helvetica;fontSize=12;fontColor=default;fillColor=#d5e8d4;" vertex="1" parent="60KGcx6HvtttfVHuBGyP-46">
          <mxGeometry x="25" width="150" height="40" as="geometry" />
        </mxCell>
        <mxCell id="60KGcx6HvtttfVHuBGyP-45" value="&lt;b&gt;&lt;font style=&quot;font-size: 14px;&quot; color=&quot;#000000&quot; face=&quot;Comic Sans MS&quot;&gt;opcion_no_valida&lt;/font&gt;&lt;/b&gt;" style="text;strokeColor=none;align=center;fillColor=none;html=1;verticalAlign=middle;whiteSpace=wrap;rounded=0;fontFamily=Architects Daughter;fontSource=https%3A%2F%2Ffonts.googleapis.com%2Fcss%3Ffamily%3DArchitects%2BDaughter;" vertex="1" parent="60KGcx6HvtttfVHuBGyP-46">
          <mxGeometry y="5" width="200" height="30" as="geometry" />
        </mxCell>
        <mxCell id="60KGcx6HvtttfVHuBGyP-50" value="" style="group;aspect=fixed;" vertex="1" connectable="0" parent="60KGcx6HvtttfVHuBGyP-109">
          <mxGeometry x="1138" y="72.5" width="90" height="35" as="geometry" />
        </mxCell>
        <mxCell id="60KGcx6HvtttfVHuBGyP-47" value="" style="rounded=1;whiteSpace=wrap;html=1;absoluteArcSize=1;arcSize=14;strokeWidth=2;labelBackgroundColor=none;strokeColor=#0F140C;align=center;verticalAlign=middle;fontFamily=Helvetica;fontSize=12;fontColor=default;fillColor=#d5e8d4;aspect=fixed;" vertex="1" parent="60KGcx6HvtttfVHuBGyP-50">
          <mxGeometry x="2.5" width="85" height="35" as="geometry" />
        </mxCell>
        <mxCell id="60KGcx6HvtttfVHuBGyP-48" value="&lt;b&gt;&lt;font color=&quot;#000000&quot; style=&quot;font-size: 14px;&quot; face=&quot;Comic Sans MS&quot;&gt;default&lt;/font&gt;&lt;/b&gt;" style="text;strokeColor=none;align=center;fillColor=none;html=1;verticalAlign=middle;whiteSpace=wrap;rounded=0;fontFamily=Architects Daughter;fontSource=https%3A%2F%2Ffonts.googleapis.com%2Fcss%3Ffamily%3DArchitects%2BDaughter;aspect=fixed;" vertex="1" parent="60KGcx6HvtttfVHuBGyP-50">
          <mxGeometry y="2.5" width="90" height="30" as="geometry" />
        </mxCell>
        <mxCell id="60KGcx6HvtttfVHuBGyP-54" value="" style="line;strokeWidth=2;direction=south;html=1;hachureGap=4;fontFamily=Architects Daughter;fontSource=https://fonts.googleapis.com/css?family=Architects+Daughter;strokeColor=#000000;" vertex="1" parent="60KGcx6HvtttfVHuBGyP-109">
          <mxGeometry x="147" y="113" width="10" height="32" as="geometry" />
        </mxCell>
        <mxCell id="60KGcx6HvtttfVHuBGyP-59" value="" style="line;strokeWidth=2;direction=south;html=1;hachureGap=4;fontFamily=Architects Daughter;fontSource=https://fonts.googleapis.com/css?family=Architects+Daughter;strokeColor=#000000;" vertex="1" parent="60KGcx6HvtttfVHuBGyP-109">
          <mxGeometry x="970" y="113" width="10" height="42" as="geometry" />
        </mxCell>
        <mxCell id="60KGcx6HvtttfVHuBGyP-60" value="" style="line;strokeWidth=2;direction=south;html=1;hachureGap=4;fontFamily=Architects Daughter;fontSource=https://fonts.googleapis.com/css?family=Architects+Daughter;strokeColor=#000000;" vertex="1" parent="60KGcx6HvtttfVHuBGyP-109">
          <mxGeometry x="1178" y="115" width="10" height="30" as="geometry" />
        </mxCell>
        <mxCell id="60KGcx6HvtttfVHuBGyP-61" value="" style="line;strokeWidth=2;direction=south;html=1;hachureGap=4;fontFamily=Architects Daughter;fontSource=https://fonts.googleapis.com/css?family=Architects+Daughter;strokeColor=#000000;" vertex="1" parent="60KGcx6HvtttfVHuBGyP-109">
          <mxGeometry x="435.5" y="245" width="10" height="50" as="geometry" />
        </mxCell>
        <mxCell id="60KGcx6HvtttfVHuBGyP-66" value="" style="group;aspect=fixed;" vertex="1" connectable="0" parent="60KGcx6HvtttfVHuBGyP-109">
          <mxGeometry y="215" width="280" height="30" as="geometry" />
        </mxCell>
        <mxCell id="60KGcx6HvtttfVHuBGyP-62" value="" style="rounded=0;whiteSpace=wrap;html=1;labelBackgroundColor=none;strokeColor=#0f100e;strokeWidth=2;align=center;verticalAlign=middle;fontFamily=Helvetica;fontSize=12;fontColor=default;fillColor=#d5e8d4;aspect=fixed;" vertex="1" parent="60KGcx6HvtttfVHuBGyP-66">
          <mxGeometry width="280" height="30" as="geometry" />
        </mxCell>
        <mxCell id="60KGcx6HvtttfVHuBGyP-65" value="&lt;font color=&quot;#000000&quot; face=&quot;Comic Sans MS&quot;&gt;&lt;b&gt;cantidad_vendida += venta_carteras_blancas&lt;/b&gt;&lt;/font&gt;" style="text;strokeColor=none;align=center;fillColor=none;html=1;verticalAlign=middle;whiteSpace=wrap;rounded=0;fontFamily=Architects Daughter;fontSource=https%3A%2F%2Ffonts.googleapis.com%2Fcss%3Ffamily%3DArchitects%2BDaughter;aspect=fixed;" vertex="1" parent="60KGcx6HvtttfVHuBGyP-66">
          <mxGeometry x="5" width="270" height="30" as="geometry" />
        </mxCell>
        <mxCell id="60KGcx6HvtttfVHuBGyP-68" value="" style="group;aspect=fixed;" vertex="1" connectable="0" parent="60KGcx6HvtttfVHuBGyP-109">
          <mxGeometry y="275" width="280" height="30" as="geometry" />
        </mxCell>
        <mxCell id="60KGcx6HvtttfVHuBGyP-69" value="" style="rounded=0;whiteSpace=wrap;html=1;labelBackgroundColor=none;strokeColor=#0f100e;strokeWidth=2;align=center;verticalAlign=middle;fontFamily=Helvetica;fontSize=12;fontColor=default;fillColor=#d5e8d4;aspect=fixed;" vertex="1" parent="60KGcx6HvtttfVHuBGyP-68">
          <mxGeometry width="280" height="30" as="geometry" />
        </mxCell>
        <mxCell id="60KGcx6HvtttfVHuBGyP-70" value="&lt;font face=&quot;Comic Sans MS&quot; color=&quot;#000000&quot;&gt;&lt;b&gt;cantidad_blanca += venta_carteras_blancas&lt;/b&gt;&lt;/font&gt;" style="text;strokeColor=none;align=center;fillColor=none;html=1;verticalAlign=middle;whiteSpace=wrap;rounded=0;fontFamily=Architects Daughter;fontSource=https://fonts.googleapis.com/css?family=Architects+Daughter;aspect=fixed;" vertex="1" parent="60KGcx6HvtttfVHuBGyP-68">
          <mxGeometry x="5" width="270" height="30" as="geometry" />
        </mxCell>
        <mxCell id="60KGcx6HvtttfVHuBGyP-93" value="" style="line;strokeWidth=2;direction=south;html=1;hachureGap=4;fontFamily=Architects Daughter;fontSource=https://fonts.googleapis.com/css?family=Architects+Daughter;strokeColor=#000000;" vertex="1" parent="60KGcx6HvtttfVHuBGyP-68">
          <mxGeometry x="146" y="-30" width="10" height="30" as="geometry" />
        </mxCell>
        <mxCell id="60KGcx6HvtttfVHuBGyP-72" value="" style="group;aspect=fixed;" vertex="1" connectable="0" parent="60KGcx6HvtttfVHuBGyP-109">
          <mxGeometry x="295" y="215" width="280" height="30" as="geometry" />
        </mxCell>
        <mxCell id="60KGcx6HvtttfVHuBGyP-73" value="" style="rounded=0;whiteSpace=wrap;html=1;labelBackgroundColor=none;strokeColor=#0f100e;strokeWidth=2;align=center;verticalAlign=middle;fontFamily=Helvetica;fontSize=12;fontColor=default;fillColor=#d5e8d4;aspect=fixed;" vertex="1" parent="60KGcx6HvtttfVHuBGyP-72">
          <mxGeometry width="280" height="30" as="geometry" />
        </mxCell>
        <mxCell id="60KGcx6HvtttfVHuBGyP-74" value="&lt;font color=&quot;#000000&quot; face=&quot;Comic Sans MS&quot;&gt;&lt;b&gt;cantidad_vendida += venta_carteras_negras&lt;/b&gt;&lt;/font&gt;" style="text;strokeColor=none;align=center;fillColor=none;html=1;verticalAlign=middle;whiteSpace=wrap;rounded=0;fontFamily=Architects Daughter;fontSource=https://fonts.googleapis.com/css?family=Architects+Daughter;aspect=fixed;" vertex="1" parent="60KGcx6HvtttfVHuBGyP-72">
          <mxGeometry x="5" width="270" height="30" as="geometry" />
        </mxCell>
        <mxCell id="60KGcx6HvtttfVHuBGyP-75" value="" style="group;aspect=fixed;" vertex="1" connectable="0" parent="60KGcx6HvtttfVHuBGyP-109">
          <mxGeometry x="295" y="275" width="280" height="30" as="geometry" />
        </mxCell>
        <mxCell id="60KGcx6HvtttfVHuBGyP-76" value="" style="rounded=0;whiteSpace=wrap;html=1;labelBackgroundColor=none;strokeColor=#0f100e;strokeWidth=2;align=center;verticalAlign=middle;fontFamily=Helvetica;fontSize=12;fontColor=default;fillColor=#d5e8d4;aspect=fixed;" vertex="1" parent="60KGcx6HvtttfVHuBGyP-75">
          <mxGeometry width="280" height="30" as="geometry" />
        </mxCell>
        <mxCell id="60KGcx6HvtttfVHuBGyP-77" value="&lt;font face=&quot;Comic Sans MS&quot; color=&quot;#000000&quot;&gt;&lt;b&gt;cantidad_blanca += venta_carteras_negras&lt;/b&gt;&lt;/font&gt;" style="text;strokeColor=none;align=center;fillColor=none;html=1;verticalAlign=middle;whiteSpace=wrap;rounded=0;fontFamily=Architects Daughter;fontSource=https://fonts.googleapis.com/css?family=Architects+Daughter;aspect=fixed;" vertex="1" parent="60KGcx6HvtttfVHuBGyP-75">
          <mxGeometry x="5" width="270" height="30" as="geometry" />
        </mxCell>
        <mxCell id="60KGcx6HvtttfVHuBGyP-78" value="" style="group;aspect=fixed;" vertex="1" connectable="0" parent="60KGcx6HvtttfVHuBGyP-109">
          <mxGeometry x="585" y="215" width="280" height="30" as="geometry" />
        </mxCell>
        <mxCell id="60KGcx6HvtttfVHuBGyP-79" value="" style="rounded=0;whiteSpace=wrap;html=1;labelBackgroundColor=none;strokeColor=#0f100e;strokeWidth=2;align=center;verticalAlign=middle;fontFamily=Helvetica;fontSize=12;fontColor=default;fillColor=#d5e8d4;aspect=fixed;" vertex="1" parent="60KGcx6HvtttfVHuBGyP-78">
          <mxGeometry width="280" height="30" as="geometry" />
        </mxCell>
        <mxCell id="60KGcx6HvtttfVHuBGyP-80" value="&lt;font color=&quot;#000000&quot; face=&quot;Comic Sans MS&quot;&gt;&lt;b&gt;cantidad_vendida += venta_carteras_marron&lt;/b&gt;&lt;/font&gt;" style="text;strokeColor=none;align=center;fillColor=none;html=1;verticalAlign=middle;whiteSpace=wrap;rounded=0;fontFamily=Architects Daughter;fontSource=https://fonts.googleapis.com/css?family=Architects+Daughter;aspect=fixed;" vertex="1" parent="60KGcx6HvtttfVHuBGyP-78">
          <mxGeometry x="5" width="270" height="30" as="geometry" />
        </mxCell>
        <mxCell id="60KGcx6HvtttfVHuBGyP-81" value="" style="group;aspect=fixed;" vertex="1" connectable="0" parent="60KGcx6HvtttfVHuBGyP-109">
          <mxGeometry x="585" y="275" width="280" height="30" as="geometry" />
        </mxCell>
        <mxCell id="60KGcx6HvtttfVHuBGyP-82" value="" style="rounded=0;whiteSpace=wrap;html=1;labelBackgroundColor=none;strokeColor=#0f100e;strokeWidth=2;align=center;verticalAlign=middle;fontFamily=Helvetica;fontSize=12;fontColor=default;fillColor=#d5e8d4;aspect=fixed;" vertex="1" parent="60KGcx6HvtttfVHuBGyP-81">
          <mxGeometry width="280" height="30" as="geometry" />
        </mxCell>
        <mxCell id="60KGcx6HvtttfVHuBGyP-83" value="&lt;font face=&quot;Comic Sans MS&quot; color=&quot;#000000&quot;&gt;&lt;b&gt;cantidad_blanca += venta_carteras_marron&lt;/b&gt;&lt;/font&gt;" style="text;strokeColor=none;align=center;fillColor=none;html=1;verticalAlign=middle;whiteSpace=wrap;rounded=0;fontFamily=Architects Daughter;fontSource=https://fonts.googleapis.com/css?family=Architects+Daughter;aspect=fixed;" vertex="1" parent="60KGcx6HvtttfVHuBGyP-81">
          <mxGeometry x="5" width="270" height="30" as="geometry" />
        </mxCell>
        <mxCell id="60KGcx6HvtttfVHuBGyP-84" value="" style="group;aspect=fixed;" vertex="1" connectable="0" parent="60KGcx6HvtttfVHuBGyP-109">
          <mxGeometry x="870" y="275" width="280" height="30" as="geometry" />
        </mxCell>
        <mxCell id="60KGcx6HvtttfVHuBGyP-85" value="" style="rounded=0;whiteSpace=wrap;html=1;labelBackgroundColor=none;strokeColor=#0f100e;strokeWidth=2;align=center;verticalAlign=middle;fontFamily=Helvetica;fontSize=12;fontColor=default;fillColor=#d5e8d4;aspect=fixed;" vertex="1" parent="60KGcx6HvtttfVHuBGyP-84">
          <mxGeometry width="280" height="30" as="geometry" />
        </mxCell>
        <mxCell id="60KGcx6HvtttfVHuBGyP-86" value="&lt;font face=&quot;Comic Sans MS&quot; color=&quot;#000000&quot;&gt;&lt;b&gt;cantidad_blanca += venta_carteras_gris&lt;/b&gt;&lt;/font&gt;" style="text;strokeColor=none;align=center;fillColor=none;html=1;verticalAlign=middle;whiteSpace=wrap;rounded=0;fontFamily=Architects Daughter;fontSource=https://fonts.googleapis.com/css?family=Architects+Daughter;aspect=fixed;" vertex="1" parent="60KGcx6HvtttfVHuBGyP-84">
          <mxGeometry x="5" width="270" height="30" as="geometry" />
        </mxCell>
        <mxCell id="60KGcx6HvtttfVHuBGyP-87" value="" style="group;aspect=fixed;" vertex="1" connectable="0" parent="60KGcx6HvtttfVHuBGyP-109">
          <mxGeometry x="870" y="215" width="280" height="30" as="geometry" />
        </mxCell>
        <mxCell id="60KGcx6HvtttfVHuBGyP-88" value="" style="rounded=0;whiteSpace=wrap;html=1;labelBackgroundColor=none;strokeColor=#0f100e;strokeWidth=2;align=center;verticalAlign=middle;fontFamily=Helvetica;fontSize=12;fontColor=default;fillColor=#d5e8d4;aspect=fixed;" vertex="1" parent="60KGcx6HvtttfVHuBGyP-87">
          <mxGeometry width="280" height="30" as="geometry" />
        </mxCell>
        <mxCell id="60KGcx6HvtttfVHuBGyP-89" value="&lt;font color=&quot;#000000&quot; face=&quot;Comic Sans MS&quot;&gt;&lt;b&gt;cantidad_vendida += venta_carteras_gris&lt;/b&gt;&lt;/font&gt;" style="text;strokeColor=none;align=center;fillColor=none;html=1;verticalAlign=middle;whiteSpace=wrap;rounded=0;fontFamily=Architects Daughter;fontSource=https://fonts.googleapis.com/css?family=Architects+Daughter;aspect=fixed;" vertex="1" parent="60KGcx6HvtttfVHuBGyP-87">
          <mxGeometry x="5" width="270" height="30" as="geometry" />
        </mxCell>
        <mxCell id="60KGcx6HvtttfVHuBGyP-90" value="" style="line;strokeWidth=2;direction=south;html=1;hachureGap=4;fontFamily=Architects Daughter;fontSource=https://fonts.googleapis.com/css?family=Architects+Daughter;strokeColor=#000000;" vertex="1" parent="60KGcx6HvtttfVHuBGyP-109">
          <mxGeometry x="970" y="305" width="10" height="30" as="geometry" />
        </mxCell>
        <mxCell id="60KGcx6HvtttfVHuBGyP-91" value="" style="line;strokeWidth=2;direction=south;html=1;hachureGap=4;fontFamily=Architects Daughter;fontSource=https://fonts.googleapis.com/css?family=Architects+Daughter;strokeColor=#000000;" vertex="1" parent="60KGcx6HvtttfVHuBGyP-109">
          <mxGeometry x="720" y="305" width="10" height="30" as="geometry" />
        </mxCell>
        <mxCell id="60KGcx6HvtttfVHuBGyP-92" value="" style="line;strokeWidth=2;direction=south;html=1;hachureGap=4;fontFamily=Architects Daughter;fontSource=https://fonts.googleapis.com/css?family=Architects+Daughter;strokeColor=#000000;" vertex="1" parent="60KGcx6HvtttfVHuBGyP-109">
          <mxGeometry x="720" y="185" width="10" height="30" as="geometry" />
        </mxCell>
        <mxCell id="60KGcx6HvtttfVHuBGyP-94" value="" style="line;strokeWidth=2;direction=south;html=1;hachureGap=4;fontFamily=Architects Daughter;fontSource=https://fonts.googleapis.com/css?family=Architects+Daughter;strokeColor=#000000;" vertex="1" parent="60KGcx6HvtttfVHuBGyP-109">
          <mxGeometry x="147" y="185" width="10" height="30" as="geometry" />
        </mxCell>
        <mxCell id="60KGcx6HvtttfVHuBGyP-95" value="" style="line;strokeWidth=2;direction=south;html=1;hachureGap=4;fontFamily=Architects Daughter;fontSource=https://fonts.googleapis.com/css?family=Architects+Daughter;strokeColor=#000000;" vertex="1" parent="60KGcx6HvtttfVHuBGyP-109">
          <mxGeometry x="970" y="185" width="10" height="30" as="geometry" />
        </mxCell>
        <mxCell id="60KGcx6HvtttfVHuBGyP-96" value="" style="line;strokeWidth=2;direction=south;html=1;hachureGap=4;fontFamily=Architects Daughter;fontSource=https://fonts.googleapis.com/css?family=Architects+Daughter;strokeColor=#000000;" vertex="1" parent="60KGcx6HvtttfVHuBGyP-109">
          <mxGeometry x="435.5" y="185" width="10" height="30" as="geometry" />
        </mxCell>
        <mxCell id="60KGcx6HvtttfVHuBGyP-97" value="" style="line;strokeWidth=2;direction=south;html=1;hachureGap=4;fontFamily=Architects Daughter;fontSource=https://fonts.googleapis.com/css?family=Architects+Daughter;strokeColor=#000000;" vertex="1" parent="60KGcx6HvtttfVHuBGyP-109">
          <mxGeometry x="720" y="245" width="10" height="30" as="geometry" />
        </mxCell>
        <mxCell id="60KGcx6HvtttfVHuBGyP-98" value="" style="line;strokeWidth=2;direction=south;html=1;hachureGap=4;fontFamily=Architects Daughter;fontSource=https://fonts.googleapis.com/css?family=Architects+Daughter;strokeColor=#000000;" vertex="1" parent="60KGcx6HvtttfVHuBGyP-109">
          <mxGeometry x="1178" y="185" width="10" height="150" as="geometry" />
        </mxCell>
        <mxCell id="60KGcx6HvtttfVHuBGyP-99" value="" style="line;strokeWidth=2;direction=south;html=1;hachureGap=4;fontFamily=Architects Daughter;fontSource=https://fonts.googleapis.com/css?family=Architects+Daughter;strokeColor=#000000;" vertex="1" parent="60KGcx6HvtttfVHuBGyP-109">
          <mxGeometry x="435.5" y="305" width="10" height="30" as="geometry" />
        </mxCell>
        <mxCell id="60KGcx6HvtttfVHuBGyP-100" value="" style="line;strokeWidth=2;direction=south;html=1;hachureGap=4;fontFamily=Architects Daughter;fontSource=https://fonts.googleapis.com/css?family=Architects+Daughter;strokeColor=#000000;" vertex="1" parent="60KGcx6HvtttfVHuBGyP-109">
          <mxGeometry x="147" y="305" width="10" height="30" as="geometry" />
        </mxCell>
        <mxCell id="60KGcx6HvtttfVHuBGyP-101" value="" style="line;strokeWidth=2;direction=south;html=1;hachureGap=4;fontFamily=Architects Daughter;fontSource=https://fonts.googleapis.com/css?family=Architects+Daughter;strokeColor=#000000;" vertex="1" parent="60KGcx6HvtttfVHuBGyP-109">
          <mxGeometry x="970" y="245" width="10" height="30" as="geometry" />
        </mxCell>
        <mxCell id="60KGcx6HvtttfVHuBGyP-102" value="" style="line;strokeWidth=2;direction=south;html=1;hachureGap=4;fontFamily=Architects Daughter;fontSource=https://fonts.googleapis.com/css?family=Architects+Daughter;strokeColor=#000000;" vertex="1" parent="60KGcx6HvtttfVHuBGyP-109">
          <mxGeometry x="595" y="335" width="10" height="40" as="geometry" />
        </mxCell>
        <mxCell id="60KGcx6HvtttfVHuBGyP-106" value="" style="line;strokeWidth=2;html=1;perimeter=backbonePerimeter;points=[];outlineConnect=0;hachureGap=4;fontFamily=Architects Daughter;fontSource=https://fonts.googleapis.com/css?family=Architects+Daughter;strokeColor=#000000;" vertex="1" parent="60KGcx6HvtttfVHuBGyP-109">
          <mxGeometry x="150" y="331" width="1030" height="10" as="geometry" />
        </mxCell>
        <mxCell id="60KGcx6HvtttfVHuBGyP-110" value="" style="group;aspect=fixed;" vertex="1" connectable="0" parent="60KGcx6HvtttfVHuBGyP-364">
          <mxGeometry y="520" width="1290" height="375" as="geometry" />
        </mxCell>
        <mxCell id="60KGcx6HvtttfVHuBGyP-111" value="" style="group;aspect=fixed;" vertex="1" connectable="0" parent="60KGcx6HvtttfVHuBGyP-110">
          <mxGeometry x="545" width="110" height="110" as="geometry" />
        </mxCell>
        <mxCell id="60KGcx6HvtttfVHuBGyP-112" value="" style="rhombus;whiteSpace=wrap;html=1;rounded=0;labelBackgroundColor=none;strokeColor=#0F140C;strokeWidth=2;align=center;verticalAlign=middle;fontFamily=Helvetica;fontSize=12;fontColor=default;fillColor=#d5e8d4;aspect=fixed;" vertex="1" parent="60KGcx6HvtttfVHuBGyP-111">
          <mxGeometry width="110" height="110" as="geometry" />
        </mxCell>
        <mxCell id="60KGcx6HvtttfVHuBGyP-113" value="&lt;font color=&quot;#000000&quot; size=&quot;1&quot; face=&quot;Comic Sans MS&quot;&gt;&lt;b style=&quot;font-size: 14px;&quot;&gt;tipo_carteras&lt;/b&gt;&lt;/font&gt;" style="text;strokeColor=none;align=center;fillColor=none;html=1;verticalAlign=middle;whiteSpace=wrap;rounded=0;fontFamily=Architects Daughter;fontSource=https://fonts.googleapis.com/css?family=Architects+Daughter;aspect=fixed;" vertex="1" parent="60KGcx6HvtttfVHuBGyP-111">
          <mxGeometry x="5" y="40" width="100" height="30" as="geometry" />
        </mxCell>
        <mxCell id="60KGcx6HvtttfVHuBGyP-114" value="" style="line;strokeWidth=2;html=1;perimeter=backbonePerimeter;points=[];outlineConnect=0;hachureGap=4;fontFamily=Architects Daughter;fontSource=https://fonts.googleapis.com/css?family=Architects+Daughter;strokeColor=#000000;" vertex="1" parent="60KGcx6HvtttfVHuBGyP-110">
          <mxGeometry x="150" y="110" width="1030" height="10" as="geometry" />
        </mxCell>
        <mxCell id="60KGcx6HvtttfVHuBGyP-115" value="" style="group;aspect=fixed;" vertex="1" connectable="0" parent="60KGcx6HvtttfVHuBGyP-110">
          <mxGeometry x="140" y="75" width="45" height="30" as="geometry" />
        </mxCell>
        <mxCell id="60KGcx6HvtttfVHuBGyP-116" value="" style="strokeWidth=2;html=1;shape=mxgraph.flowchart.start_2;whiteSpace=wrap;rounded=0;labelBackgroundColor=none;strokeColor=#000000;align=center;verticalAlign=middle;fontFamily=Helvetica;fontSize=12;fontColor=default;fillColor=#d5e8d4;aspect=fixed;" vertex="1" parent="60KGcx6HvtttfVHuBGyP-115">
          <mxGeometry x="7.5" width="30" height="30" as="geometry" />
        </mxCell>
        <mxCell id="60KGcx6HvtttfVHuBGyP-117" value="&lt;b&gt;&lt;font color=&quot;#000000&quot; style=&quot;font-size: 16px;&quot; face=&quot;Comic Sans MS&quot;&gt;1&lt;/font&gt;&lt;/b&gt;" style="text;strokeColor=none;align=center;fillColor=none;html=1;verticalAlign=middle;whiteSpace=wrap;rounded=0;fontFamily=Architects Daughter;fontSource=https://fonts.googleapis.com/css?family=Architects+Daughter;aspect=fixed;" vertex="1" parent="60KGcx6HvtttfVHuBGyP-115">
          <mxGeometry y="3.75" width="45" height="22.5" as="geometry" />
        </mxCell>
        <mxCell id="60KGcx6HvtttfVHuBGyP-118" value="" style="group;aspect=fixed;" vertex="1" connectable="0" parent="60KGcx6HvtttfVHuBGyP-110">
          <mxGeometry x="420" y="75" width="45" height="30" as="geometry" />
        </mxCell>
        <mxCell id="60KGcx6HvtttfVHuBGyP-119" value="" style="strokeWidth=2;html=1;shape=mxgraph.flowchart.start_2;whiteSpace=wrap;rounded=0;labelBackgroundColor=none;strokeColor=#000000;align=center;verticalAlign=middle;fontFamily=Helvetica;fontSize=12;fontColor=default;fillColor=#d5e8d4;aspect=fixed;" vertex="1" parent="60KGcx6HvtttfVHuBGyP-118">
          <mxGeometry x="7.5" width="30" height="30" as="geometry" />
        </mxCell>
        <mxCell id="60KGcx6HvtttfVHuBGyP-120" value="&lt;b&gt;&lt;font color=&quot;#000000&quot; style=&quot;font-size: 16px;&quot; face=&quot;Comic Sans MS&quot;&gt;2&lt;/font&gt;&lt;/b&gt;" style="text;strokeColor=none;align=center;fillColor=none;html=1;verticalAlign=middle;whiteSpace=wrap;rounded=0;fontFamily=Architects Daughter;fontSource=https://fonts.googleapis.com/css?family=Architects+Daughter;aspect=fixed;" vertex="1" parent="60KGcx6HvtttfVHuBGyP-118">
          <mxGeometry y="3.75" width="45" height="22.5" as="geometry" />
        </mxCell>
        <mxCell id="60KGcx6HvtttfVHuBGyP-121" value="" style="group;aspect=fixed;" vertex="1" connectable="0" parent="60KGcx6HvtttfVHuBGyP-110">
          <mxGeometry x="702.5" y="75" width="45" height="30" as="geometry" />
        </mxCell>
        <mxCell id="60KGcx6HvtttfVHuBGyP-122" value="" style="strokeWidth=2;html=1;shape=mxgraph.flowchart.start_2;whiteSpace=wrap;rounded=0;labelBackgroundColor=none;strokeColor=#000000;align=center;verticalAlign=middle;fontFamily=Helvetica;fontSize=12;fontColor=default;fillColor=#d5e8d4;" vertex="1" parent="60KGcx6HvtttfVHuBGyP-121">
          <mxGeometry x="7.5" width="30" height="30" as="geometry" />
        </mxCell>
        <mxCell id="60KGcx6HvtttfVHuBGyP-123" value="&lt;b&gt;&lt;font color=&quot;#000000&quot; style=&quot;font-size: 16px;&quot; face=&quot;Comic Sans MS&quot;&gt;3&lt;/font&gt;&lt;/b&gt;" style="text;strokeColor=none;align=center;fillColor=none;html=1;verticalAlign=middle;whiteSpace=wrap;rounded=0;fontFamily=Architects Daughter;fontSource=https://fonts.googleapis.com/css?family=Architects+Daughter;" vertex="1" parent="60KGcx6HvtttfVHuBGyP-121">
          <mxGeometry y="3.75" width="45" height="22.5" as="geometry" />
        </mxCell>
        <mxCell id="60KGcx6HvtttfVHuBGyP-124" style="edgeStyle=orthogonalEdgeStyle;rounded=0;sketch=1;hachureGap=4;jiggle=2;curveFitting=1;orthogonalLoop=1;jettySize=auto;html=1;exitX=0.5;exitY=1;exitDx=0;exitDy=0;fontFamily=Architects Daughter;fontSource=https://fonts.googleapis.com/css?family=Architects+Daughter;" edge="1" parent="60KGcx6HvtttfVHuBGyP-121" source="60KGcx6HvtttfVHuBGyP-123" target="60KGcx6HvtttfVHuBGyP-123">
          <mxGeometry relative="1" as="geometry" />
        </mxCell>
        <mxCell id="60KGcx6HvtttfVHuBGyP-125" value="" style="group;aspect=fixed;" vertex="1" connectable="0" parent="60KGcx6HvtttfVHuBGyP-110">
          <mxGeometry x="952.5" y="75" width="45" height="30" as="geometry" />
        </mxCell>
        <mxCell id="60KGcx6HvtttfVHuBGyP-126" value="" style="strokeWidth=2;html=1;shape=mxgraph.flowchart.start_2;whiteSpace=wrap;rounded=0;labelBackgroundColor=none;strokeColor=#000000;align=center;verticalAlign=middle;fontFamily=Helvetica;fontSize=12;fontColor=default;fillColor=#d5e8d4;" vertex="1" parent="60KGcx6HvtttfVHuBGyP-125">
          <mxGeometry x="7.5" width="30" height="30" as="geometry" />
        </mxCell>
        <mxCell id="60KGcx6HvtttfVHuBGyP-127" value="&lt;b&gt;&lt;font color=&quot;#000000&quot; style=&quot;font-size: 16px;&quot; face=&quot;Comic Sans MS&quot;&gt;4&lt;/font&gt;&lt;/b&gt;" style="text;strokeColor=none;align=center;fillColor=none;html=1;verticalAlign=middle;whiteSpace=wrap;rounded=0;fontFamily=Architects Daughter;fontSource=https://fonts.googleapis.com/css?family=Architects+Daughter;" vertex="1" parent="60KGcx6HvtttfVHuBGyP-125">
          <mxGeometry y="3.75" width="45" height="22.5" as="geometry" />
        </mxCell>
        <mxCell id="60KGcx6HvtttfVHuBGyP-128" value="" style="group;aspect=fixed;" vertex="1" connectable="0" parent="60KGcx6HvtttfVHuBGyP-110">
          <mxGeometry x="50" y="145" width="210" height="40" as="geometry" />
        </mxCell>
        <mxCell id="60KGcx6HvtttfVHuBGyP-129" value="" style="shape=trapezoid;perimeter=trapezoidPerimeter;whiteSpace=wrap;html=1;fixedSize=1;rounded=0;labelBackgroundColor=none;strokeColor=#121211;strokeWidth=2;align=center;verticalAlign=middle;fontFamily=Helvetica;fontSize=12;fontColor=default;fillColor=#d5e8d4;direction=west;container=0;aspect=fixed;" vertex="1" parent="60KGcx6HvtttfVHuBGyP-128">
          <mxGeometry y="5" width="210" height="35" as="geometry">
            <mxRectangle x="-1020" y="-650" width="50" height="40" as="alternateBounds" />
          </mxGeometry>
        </mxCell>
        <mxCell id="60KGcx6HvtttfVHuBGyP-130" value="&lt;font color=&quot;#000000&quot; size=&quot;1&quot; face=&quot;Comic Sans MS&quot;&gt;&lt;b style=&quot;font-size: 14px;&quot;&gt;venta_carteras_blancas&lt;/b&gt;&lt;/font&gt;" style="text;strokeColor=none;align=center;fillColor=none;html=1;verticalAlign=middle;whiteSpace=wrap;rounded=0;fontFamily=Architects Daughter;fontSource=https://fonts.googleapis.com/css?family=Architects+Daughter;aspect=fixed;container=0;" vertex="1" parent="60KGcx6HvtttfVHuBGyP-128">
          <mxGeometry x="20" width="165" height="40" as="geometry" />
        </mxCell>
        <mxCell id="60KGcx6HvtttfVHuBGyP-131" value="" style="group;aspect=fixed;" vertex="1" connectable="0" parent="60KGcx6HvtttfVHuBGyP-110">
          <mxGeometry x="337.5" y="145" width="210" height="40" as="geometry" />
        </mxCell>
        <mxCell id="60KGcx6HvtttfVHuBGyP-132" value="" style="shape=trapezoid;perimeter=trapezoidPerimeter;whiteSpace=wrap;html=1;fixedSize=1;rounded=0;labelBackgroundColor=none;strokeColor=#121211;strokeWidth=2;align=center;verticalAlign=middle;fontFamily=Helvetica;fontSize=12;fontColor=default;fillColor=#d5e8d4;direction=west;container=0;aspect=fixed;" vertex="1" parent="60KGcx6HvtttfVHuBGyP-131">
          <mxGeometry y="5" width="210" height="35" as="geometry">
            <mxRectangle x="-1020" y="-650" width="50" height="40" as="alternateBounds" />
          </mxGeometry>
        </mxCell>
        <mxCell id="60KGcx6HvtttfVHuBGyP-133" value="&lt;font color=&quot;#000000&quot; size=&quot;1&quot; face=&quot;Comic Sans MS&quot;&gt;&lt;b style=&quot;font-size: 14px;&quot;&gt;venta_carteras_negras&lt;/b&gt;&lt;/font&gt;" style="text;strokeColor=none;align=center;fillColor=none;html=1;verticalAlign=middle;whiteSpace=wrap;rounded=0;fontFamily=Architects Daughter;fontSource=https://fonts.googleapis.com/css?family=Architects+Daughter;aspect=fixed;container=0;" vertex="1" parent="60KGcx6HvtttfVHuBGyP-131">
          <mxGeometry x="20" width="165" height="40" as="geometry" />
        </mxCell>
        <mxCell id="60KGcx6HvtttfVHuBGyP-134" style="edgeStyle=orthogonalEdgeStyle;rounded=0;sketch=1;hachureGap=4;jiggle=2;curveFitting=1;orthogonalLoop=1;jettySize=auto;html=1;exitX=0.5;exitY=1;exitDx=0;exitDy=0;fontFamily=Architects Daughter;fontSource=https://fonts.googleapis.com/css?family=Architects+Daughter;" edge="1" parent="60KGcx6HvtttfVHuBGyP-131" source="60KGcx6HvtttfVHuBGyP-133" target="60KGcx6HvtttfVHuBGyP-133">
          <mxGeometry relative="1" as="geometry" />
        </mxCell>
        <mxCell id="60KGcx6HvtttfVHuBGyP-135" value="" style="line;strokeWidth=2;direction=south;html=1;hachureGap=4;fontFamily=Architects Daughter;fontSource=https://fonts.googleapis.com/css?family=Architects+Daughter;strokeColor=#000000;" vertex="1" parent="60KGcx6HvtttfVHuBGyP-131">
          <mxGeometry x="97.5" y="-33" width="10" height="40" as="geometry" />
        </mxCell>
        <mxCell id="60KGcx6HvtttfVHuBGyP-136" value="" style="group;aspect=fixed;" vertex="1" connectable="0" parent="60KGcx6HvtttfVHuBGyP-110">
          <mxGeometry x="620" y="145" width="210" height="40" as="geometry" />
        </mxCell>
        <mxCell id="60KGcx6HvtttfVHuBGyP-137" value="" style="shape=trapezoid;perimeter=trapezoidPerimeter;whiteSpace=wrap;html=1;fixedSize=1;rounded=0;labelBackgroundColor=none;strokeColor=#121211;strokeWidth=2;align=center;verticalAlign=middle;fontFamily=Helvetica;fontSize=12;fontColor=default;fillColor=#d5e8d4;direction=west;container=0;aspect=fixed;" vertex="1" parent="60KGcx6HvtttfVHuBGyP-136">
          <mxGeometry y="5" width="210" height="35" as="geometry">
            <mxRectangle x="-1020" y="-650" width="50" height="40" as="alternateBounds" />
          </mxGeometry>
        </mxCell>
        <mxCell id="60KGcx6HvtttfVHuBGyP-138" value="&lt;font color=&quot;#000000&quot; size=&quot;1&quot; face=&quot;Comic Sans MS&quot;&gt;&lt;b style=&quot;font-size: 14px;&quot;&gt;venta_carteras_marron&lt;/b&gt;&lt;/font&gt;" style="text;strokeColor=none;align=center;fillColor=none;html=1;verticalAlign=middle;whiteSpace=wrap;rounded=0;fontFamily=Architects Daughter;fontSource=https://fonts.googleapis.com/css?family=Architects+Daughter;aspect=fixed;container=0;" vertex="1" parent="60KGcx6HvtttfVHuBGyP-136">
          <mxGeometry x="20" width="165" height="40" as="geometry" />
        </mxCell>
        <mxCell id="60KGcx6HvtttfVHuBGyP-139" value="" style="line;strokeWidth=2;direction=south;html=1;hachureGap=4;fontFamily=Architects Daughter;fontSource=https://fonts.googleapis.com/css?family=Architects+Daughter;strokeColor=#000000;" vertex="1" parent="60KGcx6HvtttfVHuBGyP-136">
          <mxGeometry x="100" y="-30" width="10" height="30" as="geometry" />
        </mxCell>
        <mxCell id="60KGcx6HvtttfVHuBGyP-140" value="" style="group;aspect=fixed;" vertex="1" connectable="0" parent="60KGcx6HvtttfVHuBGyP-110">
          <mxGeometry x="870" y="145" width="210" height="40" as="geometry" />
        </mxCell>
        <mxCell id="60KGcx6HvtttfVHuBGyP-141" value="" style="shape=trapezoid;perimeter=trapezoidPerimeter;whiteSpace=wrap;html=1;fixedSize=1;rounded=0;labelBackgroundColor=none;strokeColor=#121211;strokeWidth=2;align=center;verticalAlign=middle;fontFamily=Helvetica;fontSize=12;fontColor=default;fillColor=#d5e8d4;direction=west;container=0;aspect=fixed;" vertex="1" parent="60KGcx6HvtttfVHuBGyP-140">
          <mxGeometry y="5" width="210" height="35" as="geometry">
            <mxRectangle x="-1020" y="-650" width="50" height="40" as="alternateBounds" />
          </mxGeometry>
        </mxCell>
        <mxCell id="60KGcx6HvtttfVHuBGyP-142" value="&lt;font color=&quot;#000000&quot; size=&quot;1&quot; face=&quot;Comic Sans MS&quot;&gt;&lt;b style=&quot;font-size: 14px;&quot;&gt;venta_carteras_gris&lt;/b&gt;&lt;/font&gt;" style="text;strokeColor=none;align=center;fillColor=none;html=1;verticalAlign=middle;whiteSpace=wrap;rounded=0;fontFamily=Architects Daughter;fontSource=https://fonts.googleapis.com/css?family=Architects+Daughter;aspect=fixed;container=0;" vertex="1" parent="60KGcx6HvtttfVHuBGyP-140">
          <mxGeometry x="20" width="165" height="40" as="geometry" />
        </mxCell>
        <mxCell id="60KGcx6HvtttfVHuBGyP-143" value="" style="group;aspect=fixed;" vertex="1" connectable="0" parent="60KGcx6HvtttfVHuBGyP-110">
          <mxGeometry x="1090" y="145" width="200" height="40" as="geometry" />
        </mxCell>
        <mxCell id="60KGcx6HvtttfVHuBGyP-144" value="" style="shape=trapezoid;perimeter=trapezoidPerimeter;whiteSpace=wrap;html=1;fixedSize=1;rounded=0;labelBackgroundColor=none;strokeColor=#0F140C;strokeWidth=2;align=center;verticalAlign=middle;fontFamily=Helvetica;fontSize=12;fontColor=default;fillColor=#d5e8d4;" vertex="1" parent="60KGcx6HvtttfVHuBGyP-143">
          <mxGeometry x="25" width="150" height="40" as="geometry" />
        </mxCell>
        <mxCell id="60KGcx6HvtttfVHuBGyP-145" value="&lt;b&gt;&lt;font style=&quot;font-size: 14px;&quot; color=&quot;#000000&quot; face=&quot;Comic Sans MS&quot;&gt;opcion_no_valida&lt;/font&gt;&lt;/b&gt;" style="text;strokeColor=none;align=center;fillColor=none;html=1;verticalAlign=middle;whiteSpace=wrap;rounded=0;fontFamily=Architects Daughter;fontSource=https://fonts.googleapis.com/css?family=Architects+Daughter;" vertex="1" parent="60KGcx6HvtttfVHuBGyP-143">
          <mxGeometry y="5" width="200" height="30" as="geometry" />
        </mxCell>
        <mxCell id="60KGcx6HvtttfVHuBGyP-146" value="" style="group;aspect=fixed;" vertex="1" connectable="0" parent="60KGcx6HvtttfVHuBGyP-110">
          <mxGeometry x="1138" y="72.5" width="90" height="35" as="geometry" />
        </mxCell>
        <mxCell id="60KGcx6HvtttfVHuBGyP-147" value="" style="rounded=1;whiteSpace=wrap;html=1;absoluteArcSize=1;arcSize=14;strokeWidth=2;labelBackgroundColor=none;strokeColor=#0F140C;align=center;verticalAlign=middle;fontFamily=Helvetica;fontSize=12;fontColor=default;fillColor=#d5e8d4;aspect=fixed;" vertex="1" parent="60KGcx6HvtttfVHuBGyP-146">
          <mxGeometry x="2.5" width="85" height="35" as="geometry" />
        </mxCell>
        <mxCell id="60KGcx6HvtttfVHuBGyP-148" value="&lt;b&gt;&lt;font color=&quot;#000000&quot; style=&quot;font-size: 14px;&quot; face=&quot;Comic Sans MS&quot;&gt;default&lt;/font&gt;&lt;/b&gt;" style="text;strokeColor=none;align=center;fillColor=none;html=1;verticalAlign=middle;whiteSpace=wrap;rounded=0;fontFamily=Architects Daughter;fontSource=https://fonts.googleapis.com/css?family=Architects+Daughter;aspect=fixed;" vertex="1" parent="60KGcx6HvtttfVHuBGyP-146">
          <mxGeometry y="2.5" width="90" height="30" as="geometry" />
        </mxCell>
        <mxCell id="60KGcx6HvtttfVHuBGyP-149" value="" style="line;strokeWidth=2;direction=south;html=1;hachureGap=4;fontFamily=Architects Daughter;fontSource=https://fonts.googleapis.com/css?family=Architects+Daughter;strokeColor=#000000;" vertex="1" parent="60KGcx6HvtttfVHuBGyP-110">
          <mxGeometry x="147" y="113" width="10" height="32" as="geometry" />
        </mxCell>
        <mxCell id="60KGcx6HvtttfVHuBGyP-150" value="" style="line;strokeWidth=2;direction=south;html=1;hachureGap=4;fontFamily=Architects Daughter;fontSource=https://fonts.googleapis.com/css?family=Architects+Daughter;strokeColor=#000000;" vertex="1" parent="60KGcx6HvtttfVHuBGyP-110">
          <mxGeometry x="970" y="113" width="10" height="42" as="geometry" />
        </mxCell>
        <mxCell id="60KGcx6HvtttfVHuBGyP-151" value="" style="line;strokeWidth=2;direction=south;html=1;hachureGap=4;fontFamily=Architects Daughter;fontSource=https://fonts.googleapis.com/css?family=Architects+Daughter;strokeColor=#000000;" vertex="1" parent="60KGcx6HvtttfVHuBGyP-110">
          <mxGeometry x="1178" y="115" width="10" height="30" as="geometry" />
        </mxCell>
        <mxCell id="60KGcx6HvtttfVHuBGyP-152" value="" style="line;strokeWidth=2;direction=south;html=1;hachureGap=4;fontFamily=Architects Daughter;fontSource=https://fonts.googleapis.com/css?family=Architects+Daughter;strokeColor=#000000;" vertex="1" parent="60KGcx6HvtttfVHuBGyP-110">
          <mxGeometry x="435.5" y="245" width="10" height="50" as="geometry" />
        </mxCell>
        <mxCell id="60KGcx6HvtttfVHuBGyP-153" value="" style="group;aspect=fixed;" vertex="1" connectable="0" parent="60KGcx6HvtttfVHuBGyP-110">
          <mxGeometry y="215" width="280" height="30" as="geometry" />
        </mxCell>
        <mxCell id="60KGcx6HvtttfVHuBGyP-154" value="" style="rounded=0;whiteSpace=wrap;html=1;labelBackgroundColor=none;strokeColor=#0f100e;strokeWidth=2;align=center;verticalAlign=middle;fontFamily=Helvetica;fontSize=12;fontColor=default;fillColor=#d5e8d4;aspect=fixed;" vertex="1" parent="60KGcx6HvtttfVHuBGyP-153">
          <mxGeometry width="280" height="30" as="geometry" />
        </mxCell>
        <mxCell id="60KGcx6HvtttfVHuBGyP-155" value="&lt;font color=&quot;#000000&quot; face=&quot;Comic Sans MS&quot;&gt;&lt;b&gt;cantidad_vendida += venta_carteras_blancas&lt;/b&gt;&lt;/font&gt;" style="text;strokeColor=none;align=center;fillColor=none;html=1;verticalAlign=middle;whiteSpace=wrap;rounded=0;fontFamily=Architects Daughter;fontSource=https://fonts.googleapis.com/css?family=Architects+Daughter;aspect=fixed;" vertex="1" parent="60KGcx6HvtttfVHuBGyP-153">
          <mxGeometry x="5" width="270" height="30" as="geometry" />
        </mxCell>
        <mxCell id="60KGcx6HvtttfVHuBGyP-156" value="" style="group;aspect=fixed;" vertex="1" connectable="0" parent="60KGcx6HvtttfVHuBGyP-110">
          <mxGeometry y="275" width="280" height="30" as="geometry" />
        </mxCell>
        <mxCell id="60KGcx6HvtttfVHuBGyP-157" value="" style="rounded=0;whiteSpace=wrap;html=1;labelBackgroundColor=none;strokeColor=#0f100e;strokeWidth=2;align=center;verticalAlign=middle;fontFamily=Helvetica;fontSize=12;fontColor=default;fillColor=#d5e8d4;aspect=fixed;" vertex="1" parent="60KGcx6HvtttfVHuBGyP-156">
          <mxGeometry width="280" height="30" as="geometry" />
        </mxCell>
        <mxCell id="60KGcx6HvtttfVHuBGyP-158" value="&lt;font face=&quot;Comic Sans MS&quot; color=&quot;#000000&quot;&gt;&lt;b&gt;cantidad_blanca += venta_carteras_blancas&lt;/b&gt;&lt;/font&gt;" style="text;strokeColor=none;align=center;fillColor=none;html=1;verticalAlign=middle;whiteSpace=wrap;rounded=0;fontFamily=Architects Daughter;fontSource=https://fonts.googleapis.com/css?family=Architects+Daughter;aspect=fixed;" vertex="1" parent="60KGcx6HvtttfVHuBGyP-156">
          <mxGeometry x="5" width="270" height="30" as="geometry" />
        </mxCell>
        <mxCell id="60KGcx6HvtttfVHuBGyP-159" value="" style="line;strokeWidth=2;direction=south;html=1;hachureGap=4;fontFamily=Architects Daughter;fontSource=https://fonts.googleapis.com/css?family=Architects+Daughter;strokeColor=#000000;" vertex="1" parent="60KGcx6HvtttfVHuBGyP-156">
          <mxGeometry x="146" y="-30" width="10" height="30" as="geometry" />
        </mxCell>
        <mxCell id="60KGcx6HvtttfVHuBGyP-160" value="" style="group;aspect=fixed;" vertex="1" connectable="0" parent="60KGcx6HvtttfVHuBGyP-110">
          <mxGeometry x="295" y="215" width="280" height="30" as="geometry" />
        </mxCell>
        <mxCell id="60KGcx6HvtttfVHuBGyP-161" value="" style="rounded=0;whiteSpace=wrap;html=1;labelBackgroundColor=none;strokeColor=#0f100e;strokeWidth=2;align=center;verticalAlign=middle;fontFamily=Helvetica;fontSize=12;fontColor=default;fillColor=#d5e8d4;aspect=fixed;" vertex="1" parent="60KGcx6HvtttfVHuBGyP-160">
          <mxGeometry width="280" height="30" as="geometry" />
        </mxCell>
        <mxCell id="60KGcx6HvtttfVHuBGyP-162" value="&lt;font color=&quot;#000000&quot; face=&quot;Comic Sans MS&quot;&gt;&lt;b&gt;cantidad_vendida += venta_carteras_negras&lt;/b&gt;&lt;/font&gt;" style="text;strokeColor=none;align=center;fillColor=none;html=1;verticalAlign=middle;whiteSpace=wrap;rounded=0;fontFamily=Architects Daughter;fontSource=https://fonts.googleapis.com/css?family=Architects+Daughter;aspect=fixed;" vertex="1" parent="60KGcx6HvtttfVHuBGyP-160">
          <mxGeometry x="5" width="270" height="30" as="geometry" />
        </mxCell>
        <mxCell id="60KGcx6HvtttfVHuBGyP-163" value="" style="group;aspect=fixed;" vertex="1" connectable="0" parent="60KGcx6HvtttfVHuBGyP-110">
          <mxGeometry x="295" y="275" width="280" height="30" as="geometry" />
        </mxCell>
        <mxCell id="60KGcx6HvtttfVHuBGyP-164" value="" style="rounded=0;whiteSpace=wrap;html=1;labelBackgroundColor=none;strokeColor=#0f100e;strokeWidth=2;align=center;verticalAlign=middle;fontFamily=Helvetica;fontSize=12;fontColor=default;fillColor=#d5e8d4;aspect=fixed;" vertex="1" parent="60KGcx6HvtttfVHuBGyP-163">
          <mxGeometry width="280" height="30" as="geometry" />
        </mxCell>
        <mxCell id="60KGcx6HvtttfVHuBGyP-165" value="&lt;font face=&quot;Comic Sans MS&quot; color=&quot;#000000&quot;&gt;&lt;b&gt;cantidad_blanca += venta_carteras_negras&lt;/b&gt;&lt;/font&gt;" style="text;strokeColor=none;align=center;fillColor=none;html=1;verticalAlign=middle;whiteSpace=wrap;rounded=0;fontFamily=Architects Daughter;fontSource=https://fonts.googleapis.com/css?family=Architects+Daughter;aspect=fixed;" vertex="1" parent="60KGcx6HvtttfVHuBGyP-163">
          <mxGeometry x="5" width="270" height="30" as="geometry" />
        </mxCell>
        <mxCell id="60KGcx6HvtttfVHuBGyP-166" value="" style="group;aspect=fixed;" vertex="1" connectable="0" parent="60KGcx6HvtttfVHuBGyP-110">
          <mxGeometry x="585" y="215" width="280" height="30" as="geometry" />
        </mxCell>
        <mxCell id="60KGcx6HvtttfVHuBGyP-167" value="" style="rounded=0;whiteSpace=wrap;html=1;labelBackgroundColor=none;strokeColor=#0f100e;strokeWidth=2;align=center;verticalAlign=middle;fontFamily=Helvetica;fontSize=12;fontColor=default;fillColor=#d5e8d4;aspect=fixed;" vertex="1" parent="60KGcx6HvtttfVHuBGyP-166">
          <mxGeometry width="280" height="30" as="geometry" />
        </mxCell>
        <mxCell id="60KGcx6HvtttfVHuBGyP-168" value="&lt;font color=&quot;#000000&quot; face=&quot;Comic Sans MS&quot;&gt;&lt;b&gt;cantidad_vendida += venta_carteras_marron&lt;/b&gt;&lt;/font&gt;" style="text;strokeColor=none;align=center;fillColor=none;html=1;verticalAlign=middle;whiteSpace=wrap;rounded=0;fontFamily=Architects Daughter;fontSource=https://fonts.googleapis.com/css?family=Architects+Daughter;aspect=fixed;" vertex="1" parent="60KGcx6HvtttfVHuBGyP-166">
          <mxGeometry x="5" width="270" height="30" as="geometry" />
        </mxCell>
        <mxCell id="60KGcx6HvtttfVHuBGyP-169" value="" style="group;aspect=fixed;" vertex="1" connectable="0" parent="60KGcx6HvtttfVHuBGyP-110">
          <mxGeometry x="585" y="275" width="280" height="30" as="geometry" />
        </mxCell>
        <mxCell id="60KGcx6HvtttfVHuBGyP-170" value="" style="rounded=0;whiteSpace=wrap;html=1;labelBackgroundColor=none;strokeColor=#0f100e;strokeWidth=2;align=center;verticalAlign=middle;fontFamily=Helvetica;fontSize=12;fontColor=default;fillColor=#d5e8d4;aspect=fixed;" vertex="1" parent="60KGcx6HvtttfVHuBGyP-169">
          <mxGeometry width="280" height="30" as="geometry" />
        </mxCell>
        <mxCell id="60KGcx6HvtttfVHuBGyP-171" value="&lt;font face=&quot;Comic Sans MS&quot; color=&quot;#000000&quot;&gt;&lt;b&gt;cantidad_blanca += venta_carteras_marron&lt;/b&gt;&lt;/font&gt;" style="text;strokeColor=none;align=center;fillColor=none;html=1;verticalAlign=middle;whiteSpace=wrap;rounded=0;fontFamily=Architects Daughter;fontSource=https://fonts.googleapis.com/css?family=Architects+Daughter;aspect=fixed;" vertex="1" parent="60KGcx6HvtttfVHuBGyP-169">
          <mxGeometry x="5" width="270" height="30" as="geometry" />
        </mxCell>
        <mxCell id="60KGcx6HvtttfVHuBGyP-172" value="" style="group;aspect=fixed;" vertex="1" connectable="0" parent="60KGcx6HvtttfVHuBGyP-110">
          <mxGeometry x="870" y="275" width="280" height="30" as="geometry" />
        </mxCell>
        <mxCell id="60KGcx6HvtttfVHuBGyP-173" value="" style="rounded=0;whiteSpace=wrap;html=1;labelBackgroundColor=none;strokeColor=#0f100e;strokeWidth=2;align=center;verticalAlign=middle;fontFamily=Helvetica;fontSize=12;fontColor=default;fillColor=#d5e8d4;aspect=fixed;" vertex="1" parent="60KGcx6HvtttfVHuBGyP-172">
          <mxGeometry width="280" height="30" as="geometry" />
        </mxCell>
        <mxCell id="60KGcx6HvtttfVHuBGyP-174" value="&lt;font face=&quot;Comic Sans MS&quot; color=&quot;#000000&quot;&gt;&lt;b&gt;cantidad_blanca += venta_carteras_gris&lt;/b&gt;&lt;/font&gt;" style="text;strokeColor=none;align=center;fillColor=none;html=1;verticalAlign=middle;whiteSpace=wrap;rounded=0;fontFamily=Architects Daughter;fontSource=https://fonts.googleapis.com/css?family=Architects+Daughter;aspect=fixed;" vertex="1" parent="60KGcx6HvtttfVHuBGyP-172">
          <mxGeometry x="5" width="270" height="30" as="geometry" />
        </mxCell>
        <mxCell id="60KGcx6HvtttfVHuBGyP-175" value="" style="group;aspect=fixed;" vertex="1" connectable="0" parent="60KGcx6HvtttfVHuBGyP-110">
          <mxGeometry x="870" y="215" width="280" height="30" as="geometry" />
        </mxCell>
        <mxCell id="60KGcx6HvtttfVHuBGyP-176" value="" style="rounded=0;whiteSpace=wrap;html=1;labelBackgroundColor=none;strokeColor=#0f100e;strokeWidth=2;align=center;verticalAlign=middle;fontFamily=Helvetica;fontSize=12;fontColor=default;fillColor=#d5e8d4;aspect=fixed;" vertex="1" parent="60KGcx6HvtttfVHuBGyP-175">
          <mxGeometry width="280" height="30" as="geometry" />
        </mxCell>
        <mxCell id="60KGcx6HvtttfVHuBGyP-177" value="&lt;font color=&quot;#000000&quot; face=&quot;Comic Sans MS&quot;&gt;&lt;b&gt;cantidad_vendida += venta_carteras_gris&lt;/b&gt;&lt;/font&gt;" style="text;strokeColor=none;align=center;fillColor=none;html=1;verticalAlign=middle;whiteSpace=wrap;rounded=0;fontFamily=Architects Daughter;fontSource=https://fonts.googleapis.com/css?family=Architects+Daughter;aspect=fixed;" vertex="1" parent="60KGcx6HvtttfVHuBGyP-175">
          <mxGeometry x="5" width="270" height="30" as="geometry" />
        </mxCell>
        <mxCell id="60KGcx6HvtttfVHuBGyP-178" value="" style="line;strokeWidth=2;direction=south;html=1;hachureGap=4;fontFamily=Architects Daughter;fontSource=https://fonts.googleapis.com/css?family=Architects+Daughter;strokeColor=#000000;" vertex="1" parent="60KGcx6HvtttfVHuBGyP-110">
          <mxGeometry x="970" y="305" width="10" height="30" as="geometry" />
        </mxCell>
        <mxCell id="60KGcx6HvtttfVHuBGyP-179" value="" style="line;strokeWidth=2;direction=south;html=1;hachureGap=4;fontFamily=Architects Daughter;fontSource=https://fonts.googleapis.com/css?family=Architects+Daughter;strokeColor=#000000;" vertex="1" parent="60KGcx6HvtttfVHuBGyP-110">
          <mxGeometry x="720" y="305" width="10" height="30" as="geometry" />
        </mxCell>
        <mxCell id="60KGcx6HvtttfVHuBGyP-180" value="" style="line;strokeWidth=2;direction=south;html=1;hachureGap=4;fontFamily=Architects Daughter;fontSource=https://fonts.googleapis.com/css?family=Architects+Daughter;strokeColor=#000000;" vertex="1" parent="60KGcx6HvtttfVHuBGyP-110">
          <mxGeometry x="720" y="185" width="10" height="30" as="geometry" />
        </mxCell>
        <mxCell id="60KGcx6HvtttfVHuBGyP-181" value="" style="line;strokeWidth=2;direction=south;html=1;hachureGap=4;fontFamily=Architects Daughter;fontSource=https://fonts.googleapis.com/css?family=Architects+Daughter;strokeColor=#000000;" vertex="1" parent="60KGcx6HvtttfVHuBGyP-110">
          <mxGeometry x="147" y="185" width="10" height="30" as="geometry" />
        </mxCell>
        <mxCell id="60KGcx6HvtttfVHuBGyP-182" value="" style="line;strokeWidth=2;direction=south;html=1;hachureGap=4;fontFamily=Architects Daughter;fontSource=https://fonts.googleapis.com/css?family=Architects+Daughter;strokeColor=#000000;" vertex="1" parent="60KGcx6HvtttfVHuBGyP-110">
          <mxGeometry x="970" y="185" width="10" height="30" as="geometry" />
        </mxCell>
        <mxCell id="60KGcx6HvtttfVHuBGyP-183" value="" style="line;strokeWidth=2;direction=south;html=1;hachureGap=4;fontFamily=Architects Daughter;fontSource=https://fonts.googleapis.com/css?family=Architects+Daughter;strokeColor=#000000;" vertex="1" parent="60KGcx6HvtttfVHuBGyP-110">
          <mxGeometry x="435.5" y="185" width="10" height="30" as="geometry" />
        </mxCell>
        <mxCell id="60KGcx6HvtttfVHuBGyP-184" value="" style="line;strokeWidth=2;direction=south;html=1;hachureGap=4;fontFamily=Architects Daughter;fontSource=https://fonts.googleapis.com/css?family=Architects+Daughter;strokeColor=#000000;" vertex="1" parent="60KGcx6HvtttfVHuBGyP-110">
          <mxGeometry x="720" y="245" width="10" height="30" as="geometry" />
        </mxCell>
        <mxCell id="60KGcx6HvtttfVHuBGyP-185" value="" style="line;strokeWidth=2;direction=south;html=1;hachureGap=4;fontFamily=Architects Daughter;fontSource=https://fonts.googleapis.com/css?family=Architects+Daughter;strokeColor=#000000;" vertex="1" parent="60KGcx6HvtttfVHuBGyP-110">
          <mxGeometry x="1178" y="185" width="10" height="150" as="geometry" />
        </mxCell>
        <mxCell id="60KGcx6HvtttfVHuBGyP-186" value="" style="line;strokeWidth=2;direction=south;html=1;hachureGap=4;fontFamily=Architects Daughter;fontSource=https://fonts.googleapis.com/css?family=Architects+Daughter;strokeColor=#000000;" vertex="1" parent="60KGcx6HvtttfVHuBGyP-110">
          <mxGeometry x="435.5" y="305" width="10" height="30" as="geometry" />
        </mxCell>
        <mxCell id="60KGcx6HvtttfVHuBGyP-187" value="" style="line;strokeWidth=2;direction=south;html=1;hachureGap=4;fontFamily=Architects Daughter;fontSource=https://fonts.googleapis.com/css?family=Architects+Daughter;strokeColor=#000000;" vertex="1" parent="60KGcx6HvtttfVHuBGyP-110">
          <mxGeometry x="147" y="305" width="10" height="30" as="geometry" />
        </mxCell>
        <mxCell id="60KGcx6HvtttfVHuBGyP-188" value="" style="line;strokeWidth=2;direction=south;html=1;hachureGap=4;fontFamily=Architects Daughter;fontSource=https://fonts.googleapis.com/css?family=Architects+Daughter;strokeColor=#000000;" vertex="1" parent="60KGcx6HvtttfVHuBGyP-110">
          <mxGeometry x="970" y="245" width="10" height="30" as="geometry" />
        </mxCell>
        <mxCell id="60KGcx6HvtttfVHuBGyP-189" value="" style="line;strokeWidth=2;direction=south;html=1;hachureGap=4;fontFamily=Architects Daughter;fontSource=https://fonts.googleapis.com/css?family=Architects+Daughter;strokeColor=#000000;" vertex="1" parent="60KGcx6HvtttfVHuBGyP-110">
          <mxGeometry x="595" y="335" width="10" height="40" as="geometry" />
        </mxCell>
        <mxCell id="60KGcx6HvtttfVHuBGyP-190" value="" style="line;strokeWidth=2;html=1;perimeter=backbonePerimeter;points=[];outlineConnect=0;hachureGap=4;fontFamily=Architects Daughter;fontSource=https://fonts.googleapis.com/css?family=Architects+Daughter;strokeColor=#000000;" vertex="1" parent="60KGcx6HvtttfVHuBGyP-110">
          <mxGeometry x="150" y="331" width="1030" height="10" as="geometry" />
        </mxCell>
        <mxCell id="60KGcx6HvtttfVHuBGyP-191" value="" style="group;aspect=fixed;" vertex="1" connectable="0" parent="60KGcx6HvtttfVHuBGyP-364">
          <mxGeometry y="890" width="1290" height="375" as="geometry" />
        </mxCell>
        <mxCell id="60KGcx6HvtttfVHuBGyP-192" value="" style="group;aspect=fixed;" vertex="1" connectable="0" parent="60KGcx6HvtttfVHuBGyP-191">
          <mxGeometry x="545" width="110" height="110" as="geometry" />
        </mxCell>
        <mxCell id="60KGcx6HvtttfVHuBGyP-193" value="" style="rhombus;whiteSpace=wrap;html=1;rounded=0;labelBackgroundColor=none;strokeColor=#0F140C;strokeWidth=2;align=center;verticalAlign=middle;fontFamily=Helvetica;fontSize=12;fontColor=default;fillColor=#d5e8d4;aspect=fixed;" vertex="1" parent="60KGcx6HvtttfVHuBGyP-192">
          <mxGeometry width="110" height="110" as="geometry" />
        </mxCell>
        <mxCell id="60KGcx6HvtttfVHuBGyP-194" value="&lt;font color=&quot;#000000&quot; size=&quot;1&quot; face=&quot;Comic Sans MS&quot;&gt;&lt;b style=&quot;font-size: 14px;&quot;&gt;tipo_carteras&lt;/b&gt;&lt;/font&gt;" style="text;strokeColor=none;align=center;fillColor=none;html=1;verticalAlign=middle;whiteSpace=wrap;rounded=0;fontFamily=Architects Daughter;fontSource=https://fonts.googleapis.com/css?family=Architects+Daughter;aspect=fixed;" vertex="1" parent="60KGcx6HvtttfVHuBGyP-192">
          <mxGeometry x="5" y="40" width="100" height="30" as="geometry" />
        </mxCell>
        <mxCell id="60KGcx6HvtttfVHuBGyP-195" value="" style="line;strokeWidth=2;html=1;perimeter=backbonePerimeter;points=[];outlineConnect=0;hachureGap=4;fontFamily=Architects Daughter;fontSource=https://fonts.googleapis.com/css?family=Architects+Daughter;strokeColor=#000000;" vertex="1" parent="60KGcx6HvtttfVHuBGyP-191">
          <mxGeometry x="150" y="110" width="1030" height="10" as="geometry" />
        </mxCell>
        <mxCell id="60KGcx6HvtttfVHuBGyP-196" value="" style="group;aspect=fixed;" vertex="1" connectable="0" parent="60KGcx6HvtttfVHuBGyP-191">
          <mxGeometry x="140" y="75" width="45" height="30" as="geometry" />
        </mxCell>
        <mxCell id="60KGcx6HvtttfVHuBGyP-197" value="" style="strokeWidth=2;html=1;shape=mxgraph.flowchart.start_2;whiteSpace=wrap;rounded=0;labelBackgroundColor=none;strokeColor=#000000;align=center;verticalAlign=middle;fontFamily=Helvetica;fontSize=12;fontColor=default;fillColor=#d5e8d4;aspect=fixed;" vertex="1" parent="60KGcx6HvtttfVHuBGyP-196">
          <mxGeometry x="7.5" width="30" height="30" as="geometry" />
        </mxCell>
        <mxCell id="60KGcx6HvtttfVHuBGyP-198" value="&lt;b&gt;&lt;font color=&quot;#000000&quot; style=&quot;font-size: 16px;&quot; face=&quot;Comic Sans MS&quot;&gt;1&lt;/font&gt;&lt;/b&gt;" style="text;strokeColor=none;align=center;fillColor=none;html=1;verticalAlign=middle;whiteSpace=wrap;rounded=0;fontFamily=Architects Daughter;fontSource=https://fonts.googleapis.com/css?family=Architects+Daughter;aspect=fixed;" vertex="1" parent="60KGcx6HvtttfVHuBGyP-196">
          <mxGeometry y="3.75" width="45" height="22.5" as="geometry" />
        </mxCell>
        <mxCell id="60KGcx6HvtttfVHuBGyP-199" value="" style="group;aspect=fixed;" vertex="1" connectable="0" parent="60KGcx6HvtttfVHuBGyP-191">
          <mxGeometry x="420" y="75" width="45" height="30" as="geometry" />
        </mxCell>
        <mxCell id="60KGcx6HvtttfVHuBGyP-200" value="" style="strokeWidth=2;html=1;shape=mxgraph.flowchart.start_2;whiteSpace=wrap;rounded=0;labelBackgroundColor=none;strokeColor=#000000;align=center;verticalAlign=middle;fontFamily=Helvetica;fontSize=12;fontColor=default;fillColor=#d5e8d4;aspect=fixed;" vertex="1" parent="60KGcx6HvtttfVHuBGyP-199">
          <mxGeometry x="7.5" width="30" height="30" as="geometry" />
        </mxCell>
        <mxCell id="60KGcx6HvtttfVHuBGyP-201" value="&lt;b&gt;&lt;font color=&quot;#000000&quot; style=&quot;font-size: 16px;&quot; face=&quot;Comic Sans MS&quot;&gt;2&lt;/font&gt;&lt;/b&gt;" style="text;strokeColor=none;align=center;fillColor=none;html=1;verticalAlign=middle;whiteSpace=wrap;rounded=0;fontFamily=Architects Daughter;fontSource=https://fonts.googleapis.com/css?family=Architects+Daughter;aspect=fixed;" vertex="1" parent="60KGcx6HvtttfVHuBGyP-199">
          <mxGeometry y="3.75" width="45" height="22.5" as="geometry" />
        </mxCell>
        <mxCell id="60KGcx6HvtttfVHuBGyP-202" value="" style="group;aspect=fixed;" vertex="1" connectable="0" parent="60KGcx6HvtttfVHuBGyP-191">
          <mxGeometry x="702.5" y="75" width="45" height="30" as="geometry" />
        </mxCell>
        <mxCell id="60KGcx6HvtttfVHuBGyP-203" value="" style="strokeWidth=2;html=1;shape=mxgraph.flowchart.start_2;whiteSpace=wrap;rounded=0;labelBackgroundColor=none;strokeColor=#000000;align=center;verticalAlign=middle;fontFamily=Helvetica;fontSize=12;fontColor=default;fillColor=#d5e8d4;" vertex="1" parent="60KGcx6HvtttfVHuBGyP-202">
          <mxGeometry x="7.5" width="30" height="30" as="geometry" />
        </mxCell>
        <mxCell id="60KGcx6HvtttfVHuBGyP-204" value="&lt;b&gt;&lt;font color=&quot;#000000&quot; style=&quot;font-size: 16px;&quot; face=&quot;Comic Sans MS&quot;&gt;3&lt;/font&gt;&lt;/b&gt;" style="text;strokeColor=none;align=center;fillColor=none;html=1;verticalAlign=middle;whiteSpace=wrap;rounded=0;fontFamily=Architects Daughter;fontSource=https://fonts.googleapis.com/css?family=Architects+Daughter;" vertex="1" parent="60KGcx6HvtttfVHuBGyP-202">
          <mxGeometry y="3.75" width="45" height="22.5" as="geometry" />
        </mxCell>
        <mxCell id="60KGcx6HvtttfVHuBGyP-205" style="edgeStyle=orthogonalEdgeStyle;rounded=0;sketch=1;hachureGap=4;jiggle=2;curveFitting=1;orthogonalLoop=1;jettySize=auto;html=1;exitX=0.5;exitY=1;exitDx=0;exitDy=0;fontFamily=Architects Daughter;fontSource=https://fonts.googleapis.com/css?family=Architects+Daughter;" edge="1" parent="60KGcx6HvtttfVHuBGyP-202" source="60KGcx6HvtttfVHuBGyP-204" target="60KGcx6HvtttfVHuBGyP-204">
          <mxGeometry relative="1" as="geometry" />
        </mxCell>
        <mxCell id="60KGcx6HvtttfVHuBGyP-206" value="" style="group;aspect=fixed;" vertex="1" connectable="0" parent="60KGcx6HvtttfVHuBGyP-191">
          <mxGeometry x="952.5" y="75" width="45" height="30" as="geometry" />
        </mxCell>
        <mxCell id="60KGcx6HvtttfVHuBGyP-207" value="" style="strokeWidth=2;html=1;shape=mxgraph.flowchart.start_2;whiteSpace=wrap;rounded=0;labelBackgroundColor=none;strokeColor=#000000;align=center;verticalAlign=middle;fontFamily=Helvetica;fontSize=12;fontColor=default;fillColor=#d5e8d4;" vertex="1" parent="60KGcx6HvtttfVHuBGyP-206">
          <mxGeometry x="7.5" width="30" height="30" as="geometry" />
        </mxCell>
        <mxCell id="60KGcx6HvtttfVHuBGyP-208" value="&lt;b&gt;&lt;font color=&quot;#000000&quot; style=&quot;font-size: 16px;&quot; face=&quot;Comic Sans MS&quot;&gt;4&lt;/font&gt;&lt;/b&gt;" style="text;strokeColor=none;align=center;fillColor=none;html=1;verticalAlign=middle;whiteSpace=wrap;rounded=0;fontFamily=Architects Daughter;fontSource=https://fonts.googleapis.com/css?family=Architects+Daughter;" vertex="1" parent="60KGcx6HvtttfVHuBGyP-206">
          <mxGeometry y="3.75" width="45" height="22.5" as="geometry" />
        </mxCell>
        <mxCell id="60KGcx6HvtttfVHuBGyP-209" value="" style="group;aspect=fixed;" vertex="1" connectable="0" parent="60KGcx6HvtttfVHuBGyP-191">
          <mxGeometry x="50" y="145" width="210" height="40" as="geometry" />
        </mxCell>
        <mxCell id="60KGcx6HvtttfVHuBGyP-210" value="" style="shape=trapezoid;perimeter=trapezoidPerimeter;whiteSpace=wrap;html=1;fixedSize=1;rounded=0;labelBackgroundColor=none;strokeColor=#121211;strokeWidth=2;align=center;verticalAlign=middle;fontFamily=Helvetica;fontSize=12;fontColor=default;fillColor=#d5e8d4;direction=west;container=0;aspect=fixed;" vertex="1" parent="60KGcx6HvtttfVHuBGyP-209">
          <mxGeometry y="5" width="210" height="35" as="geometry">
            <mxRectangle x="-1020" y="-650" width="50" height="40" as="alternateBounds" />
          </mxGeometry>
        </mxCell>
        <mxCell id="60KGcx6HvtttfVHuBGyP-211" value="&lt;font color=&quot;#000000&quot; size=&quot;1&quot; face=&quot;Comic Sans MS&quot;&gt;&lt;b style=&quot;font-size: 14px;&quot;&gt;venta_carteras_blancas&lt;/b&gt;&lt;/font&gt;" style="text;strokeColor=none;align=center;fillColor=none;html=1;verticalAlign=middle;whiteSpace=wrap;rounded=0;fontFamily=Architects Daughter;fontSource=https://fonts.googleapis.com/css?family=Architects+Daughter;aspect=fixed;container=0;" vertex="1" parent="60KGcx6HvtttfVHuBGyP-209">
          <mxGeometry x="20" width="165" height="40" as="geometry" />
        </mxCell>
        <mxCell id="60KGcx6HvtttfVHuBGyP-212" value="" style="group;aspect=fixed;" vertex="1" connectable="0" parent="60KGcx6HvtttfVHuBGyP-191">
          <mxGeometry x="337.5" y="145" width="210" height="40" as="geometry" />
        </mxCell>
        <mxCell id="60KGcx6HvtttfVHuBGyP-213" value="" style="shape=trapezoid;perimeter=trapezoidPerimeter;whiteSpace=wrap;html=1;fixedSize=1;rounded=0;labelBackgroundColor=none;strokeColor=#121211;strokeWidth=2;align=center;verticalAlign=middle;fontFamily=Helvetica;fontSize=12;fontColor=default;fillColor=#d5e8d4;direction=west;container=0;aspect=fixed;" vertex="1" parent="60KGcx6HvtttfVHuBGyP-212">
          <mxGeometry y="5" width="210" height="35" as="geometry">
            <mxRectangle x="-1020" y="-650" width="50" height="40" as="alternateBounds" />
          </mxGeometry>
        </mxCell>
        <mxCell id="60KGcx6HvtttfVHuBGyP-214" value="&lt;font color=&quot;#000000&quot; size=&quot;1&quot; face=&quot;Comic Sans MS&quot;&gt;&lt;b style=&quot;font-size: 14px;&quot;&gt;venta_carteras_negras&lt;/b&gt;&lt;/font&gt;" style="text;strokeColor=none;align=center;fillColor=none;html=1;verticalAlign=middle;whiteSpace=wrap;rounded=0;fontFamily=Architects Daughter;fontSource=https://fonts.googleapis.com/css?family=Architects+Daughter;aspect=fixed;container=0;" vertex="1" parent="60KGcx6HvtttfVHuBGyP-212">
          <mxGeometry x="20" width="165" height="40" as="geometry" />
        </mxCell>
        <mxCell id="60KGcx6HvtttfVHuBGyP-215" style="edgeStyle=orthogonalEdgeStyle;rounded=0;sketch=1;hachureGap=4;jiggle=2;curveFitting=1;orthogonalLoop=1;jettySize=auto;html=1;exitX=0.5;exitY=1;exitDx=0;exitDy=0;fontFamily=Architects Daughter;fontSource=https://fonts.googleapis.com/css?family=Architects+Daughter;" edge="1" parent="60KGcx6HvtttfVHuBGyP-212" source="60KGcx6HvtttfVHuBGyP-214" target="60KGcx6HvtttfVHuBGyP-214">
          <mxGeometry relative="1" as="geometry" />
        </mxCell>
        <mxCell id="60KGcx6HvtttfVHuBGyP-216" value="" style="line;strokeWidth=2;direction=south;html=1;hachureGap=4;fontFamily=Architects Daughter;fontSource=https://fonts.googleapis.com/css?family=Architects+Daughter;strokeColor=#000000;" vertex="1" parent="60KGcx6HvtttfVHuBGyP-212">
          <mxGeometry x="97.5" y="-33" width="10" height="40" as="geometry" />
        </mxCell>
        <mxCell id="60KGcx6HvtttfVHuBGyP-217" value="" style="group;aspect=fixed;" vertex="1" connectable="0" parent="60KGcx6HvtttfVHuBGyP-191">
          <mxGeometry x="620" y="145" width="210" height="40" as="geometry" />
        </mxCell>
        <mxCell id="60KGcx6HvtttfVHuBGyP-218" value="" style="shape=trapezoid;perimeter=trapezoidPerimeter;whiteSpace=wrap;html=1;fixedSize=1;rounded=0;labelBackgroundColor=none;strokeColor=#121211;strokeWidth=2;align=center;verticalAlign=middle;fontFamily=Helvetica;fontSize=12;fontColor=default;fillColor=#d5e8d4;direction=west;container=0;aspect=fixed;" vertex="1" parent="60KGcx6HvtttfVHuBGyP-217">
          <mxGeometry y="5" width="210" height="35" as="geometry">
            <mxRectangle x="-1020" y="-650" width="50" height="40" as="alternateBounds" />
          </mxGeometry>
        </mxCell>
        <mxCell id="60KGcx6HvtttfVHuBGyP-219" value="&lt;font color=&quot;#000000&quot; size=&quot;1&quot; face=&quot;Comic Sans MS&quot;&gt;&lt;b style=&quot;font-size: 14px;&quot;&gt;venta_carteras_marron&lt;/b&gt;&lt;/font&gt;" style="text;strokeColor=none;align=center;fillColor=none;html=1;verticalAlign=middle;whiteSpace=wrap;rounded=0;fontFamily=Architects Daughter;fontSource=https://fonts.googleapis.com/css?family=Architects+Daughter;aspect=fixed;container=0;" vertex="1" parent="60KGcx6HvtttfVHuBGyP-217">
          <mxGeometry x="20" width="165" height="40" as="geometry" />
        </mxCell>
        <mxCell id="60KGcx6HvtttfVHuBGyP-220" value="" style="line;strokeWidth=2;direction=south;html=1;hachureGap=4;fontFamily=Architects Daughter;fontSource=https://fonts.googleapis.com/css?family=Architects+Daughter;strokeColor=#000000;" vertex="1" parent="60KGcx6HvtttfVHuBGyP-217">
          <mxGeometry x="100" y="-30" width="10" height="30" as="geometry" />
        </mxCell>
        <mxCell id="60KGcx6HvtttfVHuBGyP-221" value="" style="group;aspect=fixed;" vertex="1" connectable="0" parent="60KGcx6HvtttfVHuBGyP-191">
          <mxGeometry x="870" y="145" width="210" height="40" as="geometry" />
        </mxCell>
        <mxCell id="60KGcx6HvtttfVHuBGyP-222" value="" style="shape=trapezoid;perimeter=trapezoidPerimeter;whiteSpace=wrap;html=1;fixedSize=1;rounded=0;labelBackgroundColor=none;strokeColor=#121211;strokeWidth=2;align=center;verticalAlign=middle;fontFamily=Helvetica;fontSize=12;fontColor=default;fillColor=#d5e8d4;direction=west;container=0;aspect=fixed;" vertex="1" parent="60KGcx6HvtttfVHuBGyP-221">
          <mxGeometry y="5" width="210" height="35" as="geometry">
            <mxRectangle x="-1020" y="-650" width="50" height="40" as="alternateBounds" />
          </mxGeometry>
        </mxCell>
        <mxCell id="60KGcx6HvtttfVHuBGyP-223" value="&lt;font color=&quot;#000000&quot; size=&quot;1&quot; face=&quot;Comic Sans MS&quot;&gt;&lt;b style=&quot;font-size: 14px;&quot;&gt;venta_carteras_gris&lt;/b&gt;&lt;/font&gt;" style="text;strokeColor=none;align=center;fillColor=none;html=1;verticalAlign=middle;whiteSpace=wrap;rounded=0;fontFamily=Architects Daughter;fontSource=https://fonts.googleapis.com/css?family=Architects+Daughter;aspect=fixed;container=0;" vertex="1" parent="60KGcx6HvtttfVHuBGyP-221">
          <mxGeometry x="20" width="165" height="40" as="geometry" />
        </mxCell>
        <mxCell id="60KGcx6HvtttfVHuBGyP-224" value="" style="group;aspect=fixed;" vertex="1" connectable="0" parent="60KGcx6HvtttfVHuBGyP-191">
          <mxGeometry x="1090" y="145" width="200" height="40" as="geometry" />
        </mxCell>
        <mxCell id="60KGcx6HvtttfVHuBGyP-225" value="" style="shape=trapezoid;perimeter=trapezoidPerimeter;whiteSpace=wrap;html=1;fixedSize=1;rounded=0;labelBackgroundColor=none;strokeColor=#0F140C;strokeWidth=2;align=center;verticalAlign=middle;fontFamily=Helvetica;fontSize=12;fontColor=default;fillColor=#d5e8d4;" vertex="1" parent="60KGcx6HvtttfVHuBGyP-224">
          <mxGeometry x="25" width="150" height="40" as="geometry" />
        </mxCell>
        <mxCell id="60KGcx6HvtttfVHuBGyP-226" value="&lt;b&gt;&lt;font style=&quot;font-size: 14px;&quot; color=&quot;#000000&quot; face=&quot;Comic Sans MS&quot;&gt;opcion_no_valida&lt;/font&gt;&lt;/b&gt;" style="text;strokeColor=none;align=center;fillColor=none;html=1;verticalAlign=middle;whiteSpace=wrap;rounded=0;fontFamily=Architects Daughter;fontSource=https://fonts.googleapis.com/css?family=Architects+Daughter;" vertex="1" parent="60KGcx6HvtttfVHuBGyP-224">
          <mxGeometry y="5" width="200" height="30" as="geometry" />
        </mxCell>
        <mxCell id="60KGcx6HvtttfVHuBGyP-227" value="" style="group;aspect=fixed;" vertex="1" connectable="0" parent="60KGcx6HvtttfVHuBGyP-191">
          <mxGeometry x="1138" y="72.5" width="90" height="35" as="geometry" />
        </mxCell>
        <mxCell id="60KGcx6HvtttfVHuBGyP-228" value="" style="rounded=1;whiteSpace=wrap;html=1;absoluteArcSize=1;arcSize=14;strokeWidth=2;labelBackgroundColor=none;strokeColor=#0F140C;align=center;verticalAlign=middle;fontFamily=Helvetica;fontSize=12;fontColor=default;fillColor=#d5e8d4;aspect=fixed;" vertex="1" parent="60KGcx6HvtttfVHuBGyP-227">
          <mxGeometry x="2.5" width="85" height="35" as="geometry" />
        </mxCell>
        <mxCell id="60KGcx6HvtttfVHuBGyP-229" value="&lt;b&gt;&lt;font color=&quot;#000000&quot; style=&quot;font-size: 14px;&quot; face=&quot;Comic Sans MS&quot;&gt;default&lt;/font&gt;&lt;/b&gt;" style="text;strokeColor=none;align=center;fillColor=none;html=1;verticalAlign=middle;whiteSpace=wrap;rounded=0;fontFamily=Architects Daughter;fontSource=https://fonts.googleapis.com/css?family=Architects+Daughter;aspect=fixed;" vertex="1" parent="60KGcx6HvtttfVHuBGyP-227">
          <mxGeometry y="2.5" width="90" height="30" as="geometry" />
        </mxCell>
        <mxCell id="60KGcx6HvtttfVHuBGyP-230" value="" style="line;strokeWidth=2;direction=south;html=1;hachureGap=4;fontFamily=Architects Daughter;fontSource=https://fonts.googleapis.com/css?family=Architects+Daughter;strokeColor=#000000;" vertex="1" parent="60KGcx6HvtttfVHuBGyP-191">
          <mxGeometry x="147" y="113" width="10" height="32" as="geometry" />
        </mxCell>
        <mxCell id="60KGcx6HvtttfVHuBGyP-231" value="" style="line;strokeWidth=2;direction=south;html=1;hachureGap=4;fontFamily=Architects Daughter;fontSource=https://fonts.googleapis.com/css?family=Architects+Daughter;strokeColor=#000000;" vertex="1" parent="60KGcx6HvtttfVHuBGyP-191">
          <mxGeometry x="970" y="113" width="10" height="42" as="geometry" />
        </mxCell>
        <mxCell id="60KGcx6HvtttfVHuBGyP-232" value="" style="line;strokeWidth=2;direction=south;html=1;hachureGap=4;fontFamily=Architects Daughter;fontSource=https://fonts.googleapis.com/css?family=Architects+Daughter;strokeColor=#000000;" vertex="1" parent="60KGcx6HvtttfVHuBGyP-191">
          <mxGeometry x="1178" y="115" width="10" height="30" as="geometry" />
        </mxCell>
        <mxCell id="60KGcx6HvtttfVHuBGyP-233" value="" style="line;strokeWidth=2;direction=south;html=1;hachureGap=4;fontFamily=Architects Daughter;fontSource=https://fonts.googleapis.com/css?family=Architects+Daughter;strokeColor=#000000;" vertex="1" parent="60KGcx6HvtttfVHuBGyP-191">
          <mxGeometry x="435.5" y="245" width="10" height="50" as="geometry" />
        </mxCell>
        <mxCell id="60KGcx6HvtttfVHuBGyP-234" value="" style="group;aspect=fixed;" vertex="1" connectable="0" parent="60KGcx6HvtttfVHuBGyP-191">
          <mxGeometry y="215" width="280" height="30" as="geometry" />
        </mxCell>
        <mxCell id="60KGcx6HvtttfVHuBGyP-235" value="" style="rounded=0;whiteSpace=wrap;html=1;labelBackgroundColor=none;strokeColor=#0f100e;strokeWidth=2;align=center;verticalAlign=middle;fontFamily=Helvetica;fontSize=12;fontColor=default;fillColor=#d5e8d4;aspect=fixed;" vertex="1" parent="60KGcx6HvtttfVHuBGyP-234">
          <mxGeometry width="280" height="30" as="geometry" />
        </mxCell>
        <mxCell id="60KGcx6HvtttfVHuBGyP-236" value="&lt;font color=&quot;#000000&quot; face=&quot;Comic Sans MS&quot;&gt;&lt;b&gt;cantidad_vendida += venta_carteras_blancas&lt;/b&gt;&lt;/font&gt;" style="text;strokeColor=none;align=center;fillColor=none;html=1;verticalAlign=middle;whiteSpace=wrap;rounded=0;fontFamily=Architects Daughter;fontSource=https://fonts.googleapis.com/css?family=Architects+Daughter;aspect=fixed;" vertex="1" parent="60KGcx6HvtttfVHuBGyP-234">
          <mxGeometry x="5" width="270" height="30" as="geometry" />
        </mxCell>
        <mxCell id="60KGcx6HvtttfVHuBGyP-237" value="" style="group;aspect=fixed;" vertex="1" connectable="0" parent="60KGcx6HvtttfVHuBGyP-191">
          <mxGeometry y="275" width="280" height="30" as="geometry" />
        </mxCell>
        <mxCell id="60KGcx6HvtttfVHuBGyP-238" value="" style="rounded=0;whiteSpace=wrap;html=1;labelBackgroundColor=none;strokeColor=#0f100e;strokeWidth=2;align=center;verticalAlign=middle;fontFamily=Helvetica;fontSize=12;fontColor=default;fillColor=#d5e8d4;aspect=fixed;" vertex="1" parent="60KGcx6HvtttfVHuBGyP-237">
          <mxGeometry width="280" height="30" as="geometry" />
        </mxCell>
        <mxCell id="60KGcx6HvtttfVHuBGyP-239" value="&lt;font face=&quot;Comic Sans MS&quot; color=&quot;#000000&quot;&gt;&lt;b&gt;cantidad_blanca += venta_carteras_blancas&lt;/b&gt;&lt;/font&gt;" style="text;strokeColor=none;align=center;fillColor=none;html=1;verticalAlign=middle;whiteSpace=wrap;rounded=0;fontFamily=Architects Daughter;fontSource=https://fonts.googleapis.com/css?family=Architects+Daughter;aspect=fixed;" vertex="1" parent="60KGcx6HvtttfVHuBGyP-237">
          <mxGeometry x="5" width="270" height="30" as="geometry" />
        </mxCell>
        <mxCell id="60KGcx6HvtttfVHuBGyP-240" value="" style="line;strokeWidth=2;direction=south;html=1;hachureGap=4;fontFamily=Architects Daughter;fontSource=https://fonts.googleapis.com/css?family=Architects+Daughter;strokeColor=#000000;" vertex="1" parent="60KGcx6HvtttfVHuBGyP-237">
          <mxGeometry x="146" y="-30" width="10" height="30" as="geometry" />
        </mxCell>
        <mxCell id="60KGcx6HvtttfVHuBGyP-241" value="" style="group;aspect=fixed;" vertex="1" connectable="0" parent="60KGcx6HvtttfVHuBGyP-191">
          <mxGeometry x="295" y="215" width="280" height="30" as="geometry" />
        </mxCell>
        <mxCell id="60KGcx6HvtttfVHuBGyP-242" value="" style="rounded=0;whiteSpace=wrap;html=1;labelBackgroundColor=none;strokeColor=#0f100e;strokeWidth=2;align=center;verticalAlign=middle;fontFamily=Helvetica;fontSize=12;fontColor=default;fillColor=#d5e8d4;aspect=fixed;" vertex="1" parent="60KGcx6HvtttfVHuBGyP-241">
          <mxGeometry width="280" height="30" as="geometry" />
        </mxCell>
        <mxCell id="60KGcx6HvtttfVHuBGyP-243" value="&lt;font color=&quot;#000000&quot; face=&quot;Comic Sans MS&quot;&gt;&lt;b&gt;cantidad_vendida += venta_carteras_negras&lt;/b&gt;&lt;/font&gt;" style="text;strokeColor=none;align=center;fillColor=none;html=1;verticalAlign=middle;whiteSpace=wrap;rounded=0;fontFamily=Architects Daughter;fontSource=https://fonts.googleapis.com/css?family=Architects+Daughter;aspect=fixed;" vertex="1" parent="60KGcx6HvtttfVHuBGyP-241">
          <mxGeometry x="5" width="270" height="30" as="geometry" />
        </mxCell>
        <mxCell id="60KGcx6HvtttfVHuBGyP-244" value="" style="group;aspect=fixed;" vertex="1" connectable="0" parent="60KGcx6HvtttfVHuBGyP-191">
          <mxGeometry x="295" y="275" width="280" height="30" as="geometry" />
        </mxCell>
        <mxCell id="60KGcx6HvtttfVHuBGyP-245" value="" style="rounded=0;whiteSpace=wrap;html=1;labelBackgroundColor=none;strokeColor=#0f100e;strokeWidth=2;align=center;verticalAlign=middle;fontFamily=Helvetica;fontSize=12;fontColor=default;fillColor=#d5e8d4;aspect=fixed;" vertex="1" parent="60KGcx6HvtttfVHuBGyP-244">
          <mxGeometry width="280" height="30" as="geometry" />
        </mxCell>
        <mxCell id="60KGcx6HvtttfVHuBGyP-246" value="&lt;font face=&quot;Comic Sans MS&quot; color=&quot;#000000&quot;&gt;&lt;b&gt;cantidad_blanca += venta_carteras_negras&lt;/b&gt;&lt;/font&gt;" style="text;strokeColor=none;align=center;fillColor=none;html=1;verticalAlign=middle;whiteSpace=wrap;rounded=0;fontFamily=Architects Daughter;fontSource=https://fonts.googleapis.com/css?family=Architects+Daughter;aspect=fixed;" vertex="1" parent="60KGcx6HvtttfVHuBGyP-244">
          <mxGeometry x="5" width="270" height="30" as="geometry" />
        </mxCell>
        <mxCell id="60KGcx6HvtttfVHuBGyP-247" value="" style="group;aspect=fixed;" vertex="1" connectable="0" parent="60KGcx6HvtttfVHuBGyP-191">
          <mxGeometry x="585" y="215" width="280" height="30" as="geometry" />
        </mxCell>
        <mxCell id="60KGcx6HvtttfVHuBGyP-248" value="" style="rounded=0;whiteSpace=wrap;html=1;labelBackgroundColor=none;strokeColor=#0f100e;strokeWidth=2;align=center;verticalAlign=middle;fontFamily=Helvetica;fontSize=12;fontColor=default;fillColor=#d5e8d4;aspect=fixed;" vertex="1" parent="60KGcx6HvtttfVHuBGyP-247">
          <mxGeometry width="280" height="30" as="geometry" />
        </mxCell>
        <mxCell id="60KGcx6HvtttfVHuBGyP-249" value="&lt;font color=&quot;#000000&quot; face=&quot;Comic Sans MS&quot;&gt;&lt;b&gt;cantidad_vendida += venta_carteras_marron&lt;/b&gt;&lt;/font&gt;" style="text;strokeColor=none;align=center;fillColor=none;html=1;verticalAlign=middle;whiteSpace=wrap;rounded=0;fontFamily=Architects Daughter;fontSource=https://fonts.googleapis.com/css?family=Architects+Daughter;aspect=fixed;" vertex="1" parent="60KGcx6HvtttfVHuBGyP-247">
          <mxGeometry x="5" width="270" height="30" as="geometry" />
        </mxCell>
        <mxCell id="60KGcx6HvtttfVHuBGyP-250" value="" style="group;aspect=fixed;" vertex="1" connectable="0" parent="60KGcx6HvtttfVHuBGyP-191">
          <mxGeometry x="585" y="275" width="280" height="30" as="geometry" />
        </mxCell>
        <mxCell id="60KGcx6HvtttfVHuBGyP-251" value="" style="rounded=0;whiteSpace=wrap;html=1;labelBackgroundColor=none;strokeColor=#0f100e;strokeWidth=2;align=center;verticalAlign=middle;fontFamily=Helvetica;fontSize=12;fontColor=default;fillColor=#d5e8d4;aspect=fixed;" vertex="1" parent="60KGcx6HvtttfVHuBGyP-250">
          <mxGeometry width="280" height="30" as="geometry" />
        </mxCell>
        <mxCell id="60KGcx6HvtttfVHuBGyP-252" value="&lt;font face=&quot;Comic Sans MS&quot; color=&quot;#000000&quot;&gt;&lt;b&gt;cantidad_blanca += venta_carteras_marron&lt;/b&gt;&lt;/font&gt;" style="text;strokeColor=none;align=center;fillColor=none;html=1;verticalAlign=middle;whiteSpace=wrap;rounded=0;fontFamily=Architects Daughter;fontSource=https://fonts.googleapis.com/css?family=Architects+Daughter;aspect=fixed;" vertex="1" parent="60KGcx6HvtttfVHuBGyP-250">
          <mxGeometry x="5" width="270" height="30" as="geometry" />
        </mxCell>
        <mxCell id="60KGcx6HvtttfVHuBGyP-253" value="" style="group;aspect=fixed;" vertex="1" connectable="0" parent="60KGcx6HvtttfVHuBGyP-191">
          <mxGeometry x="870" y="275" width="280" height="30" as="geometry" />
        </mxCell>
        <mxCell id="60KGcx6HvtttfVHuBGyP-254" value="" style="rounded=0;whiteSpace=wrap;html=1;labelBackgroundColor=none;strokeColor=#0f100e;strokeWidth=2;align=center;verticalAlign=middle;fontFamily=Helvetica;fontSize=12;fontColor=default;fillColor=#d5e8d4;aspect=fixed;" vertex="1" parent="60KGcx6HvtttfVHuBGyP-253">
          <mxGeometry width="280" height="30" as="geometry" />
        </mxCell>
        <mxCell id="60KGcx6HvtttfVHuBGyP-255" value="&lt;font face=&quot;Comic Sans MS&quot; color=&quot;#000000&quot;&gt;&lt;b&gt;cantidad_blanca += venta_carteras_gris&lt;/b&gt;&lt;/font&gt;" style="text;strokeColor=none;align=center;fillColor=none;html=1;verticalAlign=middle;whiteSpace=wrap;rounded=0;fontFamily=Architects Daughter;fontSource=https://fonts.googleapis.com/css?family=Architects+Daughter;aspect=fixed;" vertex="1" parent="60KGcx6HvtttfVHuBGyP-253">
          <mxGeometry x="5" width="270" height="30" as="geometry" />
        </mxCell>
        <mxCell id="60KGcx6HvtttfVHuBGyP-256" value="" style="group;aspect=fixed;" vertex="1" connectable="0" parent="60KGcx6HvtttfVHuBGyP-191">
          <mxGeometry x="870" y="215" width="280" height="30" as="geometry" />
        </mxCell>
        <mxCell id="60KGcx6HvtttfVHuBGyP-257" value="" style="rounded=0;whiteSpace=wrap;html=1;labelBackgroundColor=none;strokeColor=#0f100e;strokeWidth=2;align=center;verticalAlign=middle;fontFamily=Helvetica;fontSize=12;fontColor=default;fillColor=#d5e8d4;aspect=fixed;" vertex="1" parent="60KGcx6HvtttfVHuBGyP-256">
          <mxGeometry width="280" height="30" as="geometry" />
        </mxCell>
        <mxCell id="60KGcx6HvtttfVHuBGyP-258" value="&lt;font color=&quot;#000000&quot; face=&quot;Comic Sans MS&quot;&gt;&lt;b&gt;cantidad_vendida += venta_carteras_gris&lt;/b&gt;&lt;/font&gt;" style="text;strokeColor=none;align=center;fillColor=none;html=1;verticalAlign=middle;whiteSpace=wrap;rounded=0;fontFamily=Architects Daughter;fontSource=https://fonts.googleapis.com/css?family=Architects+Daughter;aspect=fixed;" vertex="1" parent="60KGcx6HvtttfVHuBGyP-256">
          <mxGeometry x="5" width="270" height="30" as="geometry" />
        </mxCell>
        <mxCell id="60KGcx6HvtttfVHuBGyP-259" value="" style="line;strokeWidth=2;direction=south;html=1;hachureGap=4;fontFamily=Architects Daughter;fontSource=https://fonts.googleapis.com/css?family=Architects+Daughter;strokeColor=#000000;" vertex="1" parent="60KGcx6HvtttfVHuBGyP-191">
          <mxGeometry x="970" y="305" width="10" height="30" as="geometry" />
        </mxCell>
        <mxCell id="60KGcx6HvtttfVHuBGyP-260" value="" style="line;strokeWidth=2;direction=south;html=1;hachureGap=4;fontFamily=Architects Daughter;fontSource=https://fonts.googleapis.com/css?family=Architects+Daughter;strokeColor=#000000;" vertex="1" parent="60KGcx6HvtttfVHuBGyP-191">
          <mxGeometry x="720" y="305" width="10" height="30" as="geometry" />
        </mxCell>
        <mxCell id="60KGcx6HvtttfVHuBGyP-261" value="" style="line;strokeWidth=2;direction=south;html=1;hachureGap=4;fontFamily=Architects Daughter;fontSource=https://fonts.googleapis.com/css?family=Architects+Daughter;strokeColor=#000000;" vertex="1" parent="60KGcx6HvtttfVHuBGyP-191">
          <mxGeometry x="720" y="185" width="10" height="30" as="geometry" />
        </mxCell>
        <mxCell id="60KGcx6HvtttfVHuBGyP-262" value="" style="line;strokeWidth=2;direction=south;html=1;hachureGap=4;fontFamily=Architects Daughter;fontSource=https://fonts.googleapis.com/css?family=Architects+Daughter;strokeColor=#000000;" vertex="1" parent="60KGcx6HvtttfVHuBGyP-191">
          <mxGeometry x="147" y="185" width="10" height="30" as="geometry" />
        </mxCell>
        <mxCell id="60KGcx6HvtttfVHuBGyP-263" value="" style="line;strokeWidth=2;direction=south;html=1;hachureGap=4;fontFamily=Architects Daughter;fontSource=https://fonts.googleapis.com/css?family=Architects+Daughter;strokeColor=#000000;" vertex="1" parent="60KGcx6HvtttfVHuBGyP-191">
          <mxGeometry x="970" y="185" width="10" height="30" as="geometry" />
        </mxCell>
        <mxCell id="60KGcx6HvtttfVHuBGyP-264" value="" style="line;strokeWidth=2;direction=south;html=1;hachureGap=4;fontFamily=Architects Daughter;fontSource=https://fonts.googleapis.com/css?family=Architects+Daughter;strokeColor=#000000;" vertex="1" parent="60KGcx6HvtttfVHuBGyP-191">
          <mxGeometry x="435.5" y="185" width="10" height="30" as="geometry" />
        </mxCell>
        <mxCell id="60KGcx6HvtttfVHuBGyP-265" value="" style="line;strokeWidth=2;direction=south;html=1;hachureGap=4;fontFamily=Architects Daughter;fontSource=https://fonts.googleapis.com/css?family=Architects+Daughter;strokeColor=#000000;" vertex="1" parent="60KGcx6HvtttfVHuBGyP-191">
          <mxGeometry x="720" y="245" width="10" height="30" as="geometry" />
        </mxCell>
        <mxCell id="60KGcx6HvtttfVHuBGyP-266" value="" style="line;strokeWidth=2;direction=south;html=1;hachureGap=4;fontFamily=Architects Daughter;fontSource=https://fonts.googleapis.com/css?family=Architects+Daughter;strokeColor=#000000;" vertex="1" parent="60KGcx6HvtttfVHuBGyP-191">
          <mxGeometry x="1178" y="185" width="10" height="150" as="geometry" />
        </mxCell>
        <mxCell id="60KGcx6HvtttfVHuBGyP-267" value="" style="line;strokeWidth=2;direction=south;html=1;hachureGap=4;fontFamily=Architects Daughter;fontSource=https://fonts.googleapis.com/css?family=Architects+Daughter;strokeColor=#000000;" vertex="1" parent="60KGcx6HvtttfVHuBGyP-191">
          <mxGeometry x="435.5" y="305" width="10" height="30" as="geometry" />
        </mxCell>
        <mxCell id="60KGcx6HvtttfVHuBGyP-268" value="" style="line;strokeWidth=2;direction=south;html=1;hachureGap=4;fontFamily=Architects Daughter;fontSource=https://fonts.googleapis.com/css?family=Architects+Daughter;strokeColor=#000000;" vertex="1" parent="60KGcx6HvtttfVHuBGyP-191">
          <mxGeometry x="147" y="305" width="10" height="30" as="geometry" />
        </mxCell>
        <mxCell id="60KGcx6HvtttfVHuBGyP-269" value="" style="line;strokeWidth=2;direction=south;html=1;hachureGap=4;fontFamily=Architects Daughter;fontSource=https://fonts.googleapis.com/css?family=Architects+Daughter;strokeColor=#000000;" vertex="1" parent="60KGcx6HvtttfVHuBGyP-191">
          <mxGeometry x="970" y="245" width="10" height="30" as="geometry" />
        </mxCell>
        <mxCell id="60KGcx6HvtttfVHuBGyP-270" value="" style="line;strokeWidth=2;direction=south;html=1;hachureGap=4;fontFamily=Architects Daughter;fontSource=https://fonts.googleapis.com/css?family=Architects+Daughter;strokeColor=#000000;" vertex="1" parent="60KGcx6HvtttfVHuBGyP-191">
          <mxGeometry x="595" y="335" width="10" height="40" as="geometry" />
        </mxCell>
        <mxCell id="60KGcx6HvtttfVHuBGyP-271" value="" style="line;strokeWidth=2;html=1;perimeter=backbonePerimeter;points=[];outlineConnect=0;hachureGap=4;fontFamily=Architects Daughter;fontSource=https://fonts.googleapis.com/css?family=Architects+Daughter;strokeColor=#000000;" vertex="1" parent="60KGcx6HvtttfVHuBGyP-191">
          <mxGeometry x="150" y="331" width="1030" height="10" as="geometry" />
        </mxCell>
        <mxCell id="60KGcx6HvtttfVHuBGyP-275" value="" style="group;aspect=fixed;" vertex="1" connectable="0" parent="60KGcx6HvtttfVHuBGyP-364">
          <mxGeometry x="535" y="1265" width="130" height="150" as="geometry" />
        </mxCell>
        <mxCell id="60KGcx6HvtttfVHuBGyP-272" value="" style="rhombus;whiteSpace=wrap;html=1;rounded=0;labelBackgroundColor=none;strokeColor=#0F140C;strokeWidth=2;align=center;verticalAlign=middle;fontFamily=Helvetica;fontSize=12;fontColor=default;fillColor=#d5e8d4;aspect=fixed;" vertex="1" parent="60KGcx6HvtttfVHuBGyP-275">
          <mxGeometry width="130" height="150" as="geometry" />
        </mxCell>
        <mxCell id="60KGcx6HvtttfVHuBGyP-273" value="&lt;b style=&quot;font-size: 13px;&quot;&gt;&lt;font style=&quot;font-size: 13px;&quot; color=&quot;#000000&quot; face=&quot;Comic Sans MS&quot;&gt;cantidad_vendida&amp;nbsp;&lt;/font&gt;&lt;/b&gt;&lt;div style=&quot;font-size: 13px;&quot;&gt;&lt;b&gt;&lt;font style=&quot;font-size: 13px;&quot; color=&quot;#000000&quot; face=&quot;Comic Sans MS&quot;&gt;&amp;gt;&amp;nbsp;&lt;/font&gt;&lt;/b&gt;&lt;/div&gt;&lt;div style=&quot;font-size: 13px;&quot;&gt;&lt;b&gt;&lt;font style=&quot;font-size: 13px;&quot; color=&quot;#000000&quot; face=&quot;Comic Sans MS&quot;&gt;10&lt;/font&gt;&lt;/b&gt;&lt;/div&gt;" style="text;strokeColor=none;align=center;fillColor=none;html=1;verticalAlign=middle;whiteSpace=wrap;rounded=0;fontFamily=Architects Daughter;fontSource=https%3A%2F%2Ffonts.googleapis.com%2Fcss%3Ffamily%3DArchitects%2BDaughter;aspect=fixed;" vertex="1" parent="60KGcx6HvtttfVHuBGyP-275">
          <mxGeometry x="10" y="50" width="120" height="70" as="geometry" />
        </mxCell>
        <mxCell id="60KGcx6HvtttfVHuBGyP-276" value="" style="line;strokeWidth=2;html=1;perimeter=backbonePerimeter;points=[];outlineConnect=0;hachureGap=4;fontFamily=Architects Daughter;fontSource=https://fonts.googleapis.com/css?family=Architects+Daughter;strokeColor=#000000;" vertex="1" parent="60KGcx6HvtttfVHuBGyP-364">
          <mxGeometry x="665" y="1335" width="95" height="10" as="geometry" />
        </mxCell>
        <mxCell id="60KGcx6HvtttfVHuBGyP-277" value="" style="line;strokeWidth=2;html=1;perimeter=backbonePerimeter;points=[];outlineConnect=0;hachureGap=4;fontFamily=Architects Daughter;fontSource=https://fonts.googleapis.com/css?family=Architects+Daughter;strokeColor=#000000;" vertex="1" parent="60KGcx6HvtttfVHuBGyP-364">
          <mxGeometry x="644" y="1680" width="50" height="10" as="geometry" />
        </mxCell>
        <mxCell id="60KGcx6HvtttfVHuBGyP-284" value="" style="group;aspect=fixed;" vertex="1" connectable="0" parent="60KGcx6HvtttfVHuBGyP-364">
          <mxGeometry x="370" y="1375" width="150" height="40" as="geometry" />
        </mxCell>
        <mxCell id="60KGcx6HvtttfVHuBGyP-278" value="" style="shape=trapezoid;perimeter=trapezoidPerimeter;whiteSpace=wrap;html=1;fixedSize=1;rounded=0;labelBackgroundColor=none;strokeColor=#0F140C;strokeWidth=2;align=center;verticalAlign=middle;fontFamily=Helvetica;fontSize=12;fontColor=default;fillColor=#d5e8d4;aspect=fixed;" vertex="1" parent="60KGcx6HvtttfVHuBGyP-284">
          <mxGeometry width="150" height="40" as="geometry" />
        </mxCell>
        <mxCell id="60KGcx6HvtttfVHuBGyP-283" value="&lt;b&gt;&lt;font style=&quot;font-size: 14px;&quot; color=&quot;#000000&quot; face=&quot;Comic Sans MS&quot;&gt;venta_no_realizada&lt;/font&gt;&lt;/b&gt;" style="text;strokeColor=none;align=center;fillColor=none;html=1;verticalAlign=middle;whiteSpace=wrap;rounded=0;fontFamily=Architects Daughter;fontSource=https%3A%2F%2Ffonts.googleapis.com%2Fcss%3Ffamily%3DArchitects%2BDaughter;aspect=fixed;" vertex="1" parent="60KGcx6HvtttfVHuBGyP-284">
          <mxGeometry x="7.5" y="9" width="135" height="30" as="geometry" />
        </mxCell>
        <mxCell id="60KGcx6HvtttfVHuBGyP-289" value="" style="group;aspect=fixed;" vertex="1" connectable="0" parent="60KGcx6HvtttfVHuBGyP-364">
          <mxGeometry x="682" y="1380" width="163" height="40" as="geometry" />
        </mxCell>
        <mxCell id="60KGcx6HvtttfVHuBGyP-285" value="" style="shape=trapezoid;perimeter=trapezoidPerimeter;whiteSpace=wrap;html=1;fixedSize=1;rounded=0;labelBackgroundColor=none;strokeColor=#0F140C;strokeWidth=2;align=center;verticalAlign=middle;fontFamily=Helvetica;fontSize=12;fontColor=default;fillColor=#d5e8d4;aspect=fixed;" vertex="1" parent="60KGcx6HvtttfVHuBGyP-289">
          <mxGeometry width="163" height="40" as="geometry" />
        </mxCell>
        <mxCell id="60KGcx6HvtttfVHuBGyP-288" value="&lt;b&gt;&lt;font color=&quot;#000000&quot; style=&quot;font-size: 14px;&quot; face=&quot;Comic Sans MS&quot;&gt;cantidad_vendida&lt;/font&gt;&lt;/b&gt;" style="text;strokeColor=none;align=center;fillColor=none;html=1;verticalAlign=middle;whiteSpace=wrap;rounded=0;fontFamily=Architects Daughter;fontSource=https%3A%2F%2Ffonts.googleapis.com%2Fcss%3Ffamily%3DArchitects%2BDaughter;aspect=fixed;" vertex="1" parent="60KGcx6HvtttfVHuBGyP-289">
          <mxGeometry x="6.5" y="5" width="150" height="30" as="geometry" />
        </mxCell>
        <mxCell id="60KGcx6HvtttfVHuBGyP-297" value="" style="group;aspect=fixed;" vertex="1" connectable="0" parent="60KGcx6HvtttfVHuBGyP-364">
          <mxGeometry x="658.5" y="1444" width="210" height="85" as="geometry" />
        </mxCell>
        <mxCell id="60KGcx6HvtttfVHuBGyP-294" value="" style="rounded=0;whiteSpace=wrap;html=1;labelBackgroundColor=none;strokeColor=#0f100e;strokeWidth=2;align=center;verticalAlign=middle;fontFamily=Helvetica;fontSize=12;fontColor=default;fillColor=#d5e8d4;aspect=fixed;" vertex="1" parent="60KGcx6HvtttfVHuBGyP-297">
          <mxGeometry y="5" width="197" height="80" as="geometry" />
        </mxCell>
        <mxCell id="60KGcx6HvtttfVHuBGyP-295" value="&lt;p style=&quot;line-height: 60%;&quot;&gt;&lt;b&gt;&lt;font color=&quot;#000000&quot; face=&quot;Comic Sans MS&quot;&gt;tipo1 = 45 - cantidad_blanca&lt;br&gt;&lt;br&gt;        tipo2 = 50 - cantidad_negro&lt;br&gt;&lt;br&gt;        tipo3 = 40 - cantidad_marron&lt;br&gt;&lt;br&gt;        tipo4 = 49 - cantidad_gris&lt;/font&gt;&lt;/b&gt;&lt;/p&gt;" style="text;whiteSpace=wrap;html=1;fontFamily=Architects Daughter;fontSource=https%3A%2F%2Ffonts.googleapis.com%2Fcss%3Ffamily%3DArchitects%2BDaughter;aspect=fixed;" vertex="1" parent="60KGcx6HvtttfVHuBGyP-297">
          <mxGeometry x="10" width="200" height="80" as="geometry" />
        </mxCell>
        <mxCell id="60KGcx6HvtttfVHuBGyP-298" value="" style="line;strokeWidth=2;direction=south;html=1;hachureGap=4;fontFamily=Architects Daughter;fontSource=https://fonts.googleapis.com/css?family=Architects+Daughter;strokeColor=#000000;" vertex="1" parent="60KGcx6HvtttfVHuBGyP-364">
          <mxGeometry x="754" y="1590" width="10" height="30" as="geometry" />
        </mxCell>
        <mxCell id="60KGcx6HvtttfVHuBGyP-299" value="" style="line;strokeWidth=2;direction=south;html=1;hachureGap=4;fontFamily=Architects Daughter;fontSource=https://fonts.googleapis.com/css?family=Architects+Daughter;strokeColor=#000000;" vertex="1" parent="60KGcx6HvtttfVHuBGyP-364">
          <mxGeometry x="868.5" y="1683" width="10" height="127" as="geometry" />
        </mxCell>
        <mxCell id="60KGcx6HvtttfVHuBGyP-301" value="" style="line;strokeWidth=2;direction=south;html=1;hachureGap=4;fontFamily=Architects Daughter;fontSource=https://fonts.googleapis.com/css?family=Architects+Daughter;strokeColor=#000000;" vertex="1" parent="60KGcx6HvtttfVHuBGyP-364">
          <mxGeometry x="437" y="1415" width="10" height="1135" as="geometry" />
        </mxCell>
        <mxCell id="60KGcx6HvtttfVHuBGyP-302" value="" style="line;strokeWidth=2;html=1;perimeter=backbonePerimeter;points=[];outlineConnect=0;hachureGap=4;fontFamily=Architects Daughter;fontSource=https://fonts.googleapis.com/css?family=Architects+Daughter;strokeColor=#000000;" vertex="1" parent="60KGcx6HvtttfVHuBGyP-364">
          <mxGeometry x="647.5" y="1890" width="50" height="10" as="geometry" />
        </mxCell>
        <mxCell id="60KGcx6HvtttfVHuBGyP-303" value="" style="line;strokeWidth=2;html=1;perimeter=backbonePerimeter;points=[];outlineConnect=0;hachureGap=4;fontFamily=Architects Daughter;fontSource=https://fonts.googleapis.com/css?family=Architects+Daughter;strokeColor=#000000;" vertex="1" parent="60KGcx6HvtttfVHuBGyP-364">
          <mxGeometry x="648.5" y="1480" width="221.5" height="1095" as="geometry" />
        </mxCell>
        <mxCell id="60KGcx6HvtttfVHuBGyP-304" value="" style="line;strokeWidth=2;html=1;perimeter=backbonePerimeter;points=[];outlineConnect=0;hachureGap=4;fontFamily=Architects Daughter;fontSource=https://fonts.googleapis.com/css?family=Architects+Daughter;strokeColor=#000000;" vertex="1" parent="60KGcx6HvtttfVHuBGyP-364">
          <mxGeometry x="644" y="1807" width="226" height="10" as="geometry" />
        </mxCell>
        <mxCell id="60KGcx6HvtttfVHuBGyP-305" value="" style="line;strokeWidth=2;html=1;perimeter=backbonePerimeter;points=[];outlineConnect=0;hachureGap=4;fontFamily=Architects Daughter;fontSource=https://fonts.googleapis.com/css?family=Architects+Daughter;strokeColor=#000000;" vertex="1" parent="60KGcx6HvtttfVHuBGyP-364">
          <mxGeometry x="824" y="1680" width="50" height="10" as="geometry" />
        </mxCell>
        <mxCell id="60KGcx6HvtttfVHuBGyP-306" value="" style="group;aspect=fixed;" vertex="1" connectable="0" parent="60KGcx6HvtttfVHuBGyP-364">
          <mxGeometry x="658" y="1550" width="200" height="40" as="geometry" />
        </mxCell>
        <mxCell id="60KGcx6HvtttfVHuBGyP-286" value="" style="shape=trapezoid;perimeter=trapezoidPerimeter;whiteSpace=wrap;html=1;fixedSize=1;rounded=0;labelBackgroundColor=none;strokeColor=#0F140C;strokeWidth=2;align=center;verticalAlign=middle;fontFamily=Helvetica;fontSize=12;fontColor=default;fillColor=#d5e8d4;aspect=fixed;" vertex="1" parent="60KGcx6HvtttfVHuBGyP-306">
          <mxGeometry width="200" height="40" as="geometry" />
        </mxCell>
        <mxCell id="60KGcx6HvtttfVHuBGyP-291" value="&lt;font color=&quot;#000000&quot; size=&quot;1&quot; face=&quot;Comic Sans MS&quot;&gt;&lt;b style=&quot;font-size: 13px;&quot;&gt;tipo1, tipo2, tipo3, tipo4&lt;/b&gt;&lt;/font&gt;" style="text;strokeColor=none;align=center;fillColor=none;html=1;verticalAlign=middle;whiteSpace=wrap;rounded=0;fontFamily=Architects Daughter;fontSource=https%3A%2F%2Ffonts.googleapis.com%2Fcss%3Ffamily%3DArchitects%2BDaughter;aspect=fixed;" vertex="1" parent="60KGcx6HvtttfVHuBGyP-306">
          <mxGeometry x="20" y="10" width="163" height="30" as="geometry" />
        </mxCell>
        <mxCell id="60KGcx6HvtttfVHuBGyP-300" value="" style="line;strokeWidth=2;direction=south;html=1;hachureGap=4;fontFamily=Architects Daughter;fontSource=https://fonts.googleapis.com/css?family=Architects+Daughter;strokeColor=#000000;" vertex="1" parent="60KGcx6HvtttfVHuBGyP-306">
          <mxGeometry x="96.5" y="-20" width="10" height="20" as="geometry" />
        </mxCell>
        <mxCell id="60KGcx6HvtttfVHuBGyP-309" value="" style="rhombus;whiteSpace=wrap;html=1;rounded=0;labelBackgroundColor=none;strokeColor=#0F140C;strokeWidth=2;align=center;verticalAlign=middle;fontFamily=Helvetica;fontSize=12;fontColor=default;fillColor=#d5e8d4;" vertex="1" parent="60KGcx6HvtttfVHuBGyP-364">
          <mxGeometry x="694" y="1620" width="130" height="130" as="geometry" />
        </mxCell>
        <mxCell id="60KGcx6HvtttfVHuBGyP-312" value="&lt;b&gt;&lt;font color=&quot;#000000&quot; style=&quot;font-size: 14px;&quot; face=&quot;Comic Sans MS&quot;&gt;cantidad_blanca ==&amp;nbsp;&lt;/font&gt;&lt;/b&gt;&lt;div&gt;&lt;b&gt;&lt;font color=&quot;#000000&quot; style=&quot;font-size: 14px;&quot; face=&quot;Comic Sans MS&quot;&gt;0&amp;nbsp;&lt;/font&gt;&lt;/b&gt;&lt;/div&gt;" style="text;strokeColor=none;align=center;fillColor=none;html=1;verticalAlign=middle;whiteSpace=wrap;rounded=0;fontFamily=Architects Daughter;fontSource=https%3A%2F%2Ffonts.googleapis.com%2Fcss%3Ffamily%3DArchitects%2BDaughter;" vertex="1" parent="60KGcx6HvtttfVHuBGyP-364">
          <mxGeometry x="706.5" y="1670" width="105" height="50" as="geometry" />
        </mxCell>
        <mxCell id="60KGcx6HvtttfVHuBGyP-315" value="" style="group;aspect=fixed;" vertex="1" connectable="0" parent="60KGcx6HvtttfVHuBGyP-364">
          <mxGeometry x="590" y="1740" width="125" height="40" as="geometry" />
        </mxCell>
        <mxCell id="60KGcx6HvtttfVHuBGyP-287" value="" style="shape=trapezoid;perimeter=trapezoidPerimeter;whiteSpace=wrap;html=1;fixedSize=1;rounded=0;labelBackgroundColor=none;strokeColor=#0F140C;strokeWidth=2;align=center;verticalAlign=middle;fontFamily=Helvetica;fontSize=12;fontColor=default;fillColor=#d5e8d4;" vertex="1" parent="60KGcx6HvtttfVHuBGyP-315">
          <mxGeometry width="125" height="40" as="geometry" />
        </mxCell>
        <mxCell id="60KGcx6HvtttfVHuBGyP-314" value="&lt;b&gt;&lt;font color=&quot;#000000&quot; style=&quot;font-size: 15px;&quot; face=&quot;Comic Sans MS&quot;&gt;blanco&lt;/font&gt;&lt;/b&gt;" style="text;html=1;align=center;verticalAlign=middle;resizable=0;points=[];autosize=1;strokeColor=none;fillColor=none;fontFamily=Architects Daughter;fontSource=https%3A%2F%2Ffonts.googleapis.com%2Fcss%3Ffamily%3DArchitects%2BDaughter;" vertex="1" parent="60KGcx6HvtttfVHuBGyP-315">
          <mxGeometry x="27.5" y="5" width="70" height="30" as="geometry" />
        </mxCell>
        <mxCell id="60KGcx6HvtttfVHuBGyP-316" value="" style="group;aspect=fixed;" vertex="1" connectable="0" parent="60KGcx6HvtttfVHuBGyP-364">
          <mxGeometry x="590" y="2420" width="125" height="40" as="geometry" />
        </mxCell>
        <mxCell id="60KGcx6HvtttfVHuBGyP-317" value="" style="shape=trapezoid;perimeter=trapezoidPerimeter;whiteSpace=wrap;html=1;fixedSize=1;rounded=0;labelBackgroundColor=none;strokeColor=#0F140C;strokeWidth=2;align=center;verticalAlign=middle;fontFamily=Helvetica;fontSize=12;fontColor=default;fillColor=#d5e8d4;" vertex="1" parent="60KGcx6HvtttfVHuBGyP-316">
          <mxGeometry width="125" height="40" as="geometry" />
        </mxCell>
        <mxCell id="60KGcx6HvtttfVHuBGyP-318" value="&lt;b&gt;&lt;font color=&quot;#000000&quot; style=&quot;font-size: 15px;&quot; face=&quot;Comic Sans MS&quot;&gt;&amp;nbsp;gris&amp;nbsp;&amp;nbsp;&lt;/font&gt;&lt;/b&gt;" style="text;html=1;align=center;verticalAlign=middle;resizable=0;points=[];autosize=1;strokeColor=none;fillColor=none;fontFamily=Architects Daughter;fontSource=https://fonts.googleapis.com/css?family=Architects+Daughter;" vertex="1" parent="60KGcx6HvtttfVHuBGyP-316">
          <mxGeometry x="27.5" y="5" width="70" height="30" as="geometry" />
        </mxCell>
        <mxCell id="60KGcx6HvtttfVHuBGyP-319" value="" style="group;aspect=fixed;" vertex="1" connectable="0" parent="60KGcx6HvtttfVHuBGyP-364">
          <mxGeometry x="595" y="2190" width="125" height="40" as="geometry" />
        </mxCell>
        <mxCell id="60KGcx6HvtttfVHuBGyP-320" value="" style="shape=trapezoid;perimeter=trapezoidPerimeter;whiteSpace=wrap;html=1;fixedSize=1;rounded=0;labelBackgroundColor=none;strokeColor=#0F140C;strokeWidth=2;align=center;verticalAlign=middle;fontFamily=Helvetica;fontSize=12;fontColor=default;fillColor=#d5e8d4;" vertex="1" parent="60KGcx6HvtttfVHuBGyP-319">
          <mxGeometry width="125" height="40" as="geometry" />
        </mxCell>
        <mxCell id="60KGcx6HvtttfVHuBGyP-321" value="&lt;b&gt;&lt;font color=&quot;#000000&quot; style=&quot;font-size: 15px;&quot; face=&quot;Comic Sans MS&quot;&gt;marron&lt;/font&gt;&lt;/b&gt;" style="text;html=1;align=center;verticalAlign=middle;resizable=0;points=[];autosize=1;strokeColor=none;fillColor=none;fontFamily=Architects Daughter;fontSource=https://fonts.googleapis.com/css?family=Architects+Daughter;" vertex="1" parent="60KGcx6HvtttfVHuBGyP-319">
          <mxGeometry x="27.5" y="5" width="70" height="30" as="geometry" />
        </mxCell>
        <mxCell id="60KGcx6HvtttfVHuBGyP-322" value="" style="group;aspect=fixed;" vertex="1" connectable="0" parent="60KGcx6HvtttfVHuBGyP-364">
          <mxGeometry x="595" y="1950" width="125" height="40" as="geometry" />
        </mxCell>
        <mxCell id="60KGcx6HvtttfVHuBGyP-323" value="" style="shape=trapezoid;perimeter=trapezoidPerimeter;whiteSpace=wrap;html=1;fixedSize=1;rounded=0;labelBackgroundColor=none;strokeColor=#0F140C;strokeWidth=2;align=center;verticalAlign=middle;fontFamily=Helvetica;fontSize=12;fontColor=default;fillColor=#d5e8d4;" vertex="1" parent="60KGcx6HvtttfVHuBGyP-322">
          <mxGeometry width="125" height="40" as="geometry" />
        </mxCell>
        <mxCell id="60KGcx6HvtttfVHuBGyP-324" value="&lt;b&gt;&lt;font color=&quot;#000000&quot; style=&quot;font-size: 15px;&quot; face=&quot;Comic Sans MS&quot;&gt;negro&lt;/font&gt;&lt;/b&gt;" style="text;html=1;align=center;verticalAlign=middle;resizable=0;points=[];autosize=1;strokeColor=none;fillColor=none;fontFamily=Architects Daughter;fontSource=https://fonts.googleapis.com/css?family=Architects+Daughter;" vertex="1" parent="60KGcx6HvtttfVHuBGyP-322">
          <mxGeometry x="32.5" y="5" width="60" height="30" as="geometry" />
        </mxCell>
        <mxCell id="60KGcx6HvtttfVHuBGyP-331" value="" style="group;aspect=fixed;" vertex="1" connectable="0" parent="60KGcx6HvtttfVHuBGyP-364">
          <mxGeometry x="694" y="1830" width="130" height="130" as="geometry" />
        </mxCell>
        <mxCell id="60KGcx6HvtttfVHuBGyP-325" value="" style="rhombus;whiteSpace=wrap;html=1;rounded=0;labelBackgroundColor=none;strokeColor=#0F140C;strokeWidth=2;align=center;verticalAlign=middle;fontFamily=Helvetica;fontSize=12;fontColor=default;fillColor=#d5e8d4;aspect=fixed;" vertex="1" parent="60KGcx6HvtttfVHuBGyP-331">
          <mxGeometry width="130" height="130" as="geometry" />
        </mxCell>
        <mxCell id="60KGcx6HvtttfVHuBGyP-326" value="&lt;b&gt;&lt;font color=&quot;#000000&quot; style=&quot;font-size: 14px;&quot; face=&quot;Comic Sans MS&quot;&gt;cantidad_negro ==&amp;nbsp;&lt;/font&gt;&lt;/b&gt;&lt;div&gt;&lt;b&gt;&lt;font color=&quot;#000000&quot; style=&quot;font-size: 14px;&quot; face=&quot;Comic Sans MS&quot;&gt;0&amp;nbsp;&lt;/font&gt;&lt;/b&gt;&lt;/div&gt;" style="text;strokeColor=none;align=center;fillColor=none;html=1;verticalAlign=middle;whiteSpace=wrap;rounded=0;fontFamily=Architects Daughter;fontSource=https://fonts.googleapis.com/css?family=Architects+Daughter;aspect=fixed;" vertex="1" parent="60KGcx6HvtttfVHuBGyP-331">
          <mxGeometry x="12.5" y="50" width="105" height="50" as="geometry" />
        </mxCell>
        <mxCell id="60KGcx6HvtttfVHuBGyP-341" value="" style="line;strokeWidth=2;direction=south;html=1;hachureGap=4;fontFamily=Architects Daughter;fontSource=https://fonts.googleapis.com/css?family=Architects+Daughter;strokeColor=#000000;" vertex="1" parent="60KGcx6HvtttfVHuBGyP-331">
          <mxGeometry x="60" y="-20" width="10" height="20" as="geometry" />
        </mxCell>
        <mxCell id="60KGcx6HvtttfVHuBGyP-332" value="" style="group;aspect=fixed;" vertex="1" connectable="0" parent="60KGcx6HvtttfVHuBGyP-364">
          <mxGeometry x="698.5" y="2060" width="130" height="130" as="geometry" />
        </mxCell>
        <mxCell id="60KGcx6HvtttfVHuBGyP-327" value="" style="rhombus;whiteSpace=wrap;html=1;rounded=0;labelBackgroundColor=none;strokeColor=#0F140C;strokeWidth=2;align=center;verticalAlign=middle;fontFamily=Helvetica;fontSize=12;fontColor=default;fillColor=#d5e8d4;" vertex="1" parent="60KGcx6HvtttfVHuBGyP-332">
          <mxGeometry width="130" height="130" as="geometry" />
        </mxCell>
        <mxCell id="60KGcx6HvtttfVHuBGyP-328" value="&lt;b&gt;&lt;font color=&quot;#000000&quot; style=&quot;font-size: 14px;&quot; face=&quot;Comic Sans MS&quot;&gt;cantidad_marron ==&amp;nbsp;&lt;/font&gt;&lt;/b&gt;&lt;div&gt;&lt;b&gt;&lt;font color=&quot;#000000&quot; style=&quot;font-size: 14px;&quot; face=&quot;Comic Sans MS&quot;&gt;0&amp;nbsp;&lt;/font&gt;&lt;/b&gt;&lt;/div&gt;" style="text;strokeColor=none;align=center;fillColor=none;html=1;verticalAlign=middle;whiteSpace=wrap;rounded=0;fontFamily=Architects Daughter;fontSource=https://fonts.googleapis.com/css?family=Architects+Daughter;" vertex="1" parent="60KGcx6HvtttfVHuBGyP-332">
          <mxGeometry x="12.5" y="50" width="105" height="50" as="geometry" />
        </mxCell>
        <mxCell id="60KGcx6HvtttfVHuBGyP-336" value="" style="line;strokeWidth=2;direction=south;html=1;hachureGap=4;fontFamily=Architects Daughter;fontSource=https://fonts.googleapis.com/css?family=Architects+Daughter;strokeColor=#000000;" vertex="1" parent="60KGcx6HvtttfVHuBGyP-332">
          <mxGeometry x="60" y="-32" width="10" height="32" as="geometry" />
        </mxCell>
        <mxCell id="60KGcx6HvtttfVHuBGyP-333" value="" style="group;aspect=fixed;" vertex="1" connectable="0" parent="60KGcx6HvtttfVHuBGyP-364">
          <mxGeometry x="698.5" y="2290" width="130" height="130" as="geometry" />
        </mxCell>
        <mxCell id="60KGcx6HvtttfVHuBGyP-329" value="" style="rhombus;whiteSpace=wrap;html=1;rounded=0;labelBackgroundColor=none;strokeColor=#0F140C;strokeWidth=2;align=center;verticalAlign=middle;fontFamily=Helvetica;fontSize=12;fontColor=default;fillColor=#d5e8d4;" vertex="1" parent="60KGcx6HvtttfVHuBGyP-333">
          <mxGeometry width="130" height="130" as="geometry" />
        </mxCell>
        <mxCell id="60KGcx6HvtttfVHuBGyP-330" value="&lt;b&gt;&lt;font color=&quot;#000000&quot; style=&quot;font-size: 14px;&quot; face=&quot;Comic Sans MS&quot;&gt;cantidad_gris ==&amp;nbsp;&lt;/font&gt;&lt;/b&gt;&lt;div&gt;&lt;b&gt;&lt;font color=&quot;#000000&quot; style=&quot;font-size: 14px;&quot; face=&quot;Comic Sans MS&quot;&gt;0&amp;nbsp;&lt;/font&gt;&lt;/b&gt;&lt;/div&gt;" style="text;strokeColor=none;align=center;fillColor=none;html=1;verticalAlign=middle;whiteSpace=wrap;rounded=0;fontFamily=Architects Daughter;fontSource=https://fonts.googleapis.com/css?family=Architects+Daughter;" vertex="1" parent="60KGcx6HvtttfVHuBGyP-333">
          <mxGeometry x="12.5" y="50" width="105" height="50" as="geometry" />
        </mxCell>
        <mxCell id="60KGcx6HvtttfVHuBGyP-359" value="" style="line;strokeWidth=2;direction=south;html=1;hachureGap=4;fontFamily=Architects Daughter;fontSource=https://fonts.googleapis.com/css?family=Architects+Daughter;strokeColor=#000000;" vertex="1" parent="60KGcx6HvtttfVHuBGyP-333">
          <mxGeometry x="60" y="-30" width="10" height="30" as="geometry" />
        </mxCell>
        <mxCell id="60KGcx6HvtttfVHuBGyP-335" value="" style="line;strokeWidth=2;direction=south;html=1;hachureGap=4;fontFamily=Architects Daughter;fontSource=https://fonts.googleapis.com/css?family=Architects+Daughter;strokeColor=#000000;" vertex="1" parent="60KGcx6HvtttfVHuBGyP-364">
          <mxGeometry x="874" y="2353" width="10" height="147" as="geometry" />
        </mxCell>
        <mxCell id="60KGcx6HvtttfVHuBGyP-337" value="" style="line;strokeWidth=2;direction=south;html=1;hachureGap=4;fontFamily=Architects Daughter;fontSource=https://fonts.googleapis.com/css?family=Architects+Daughter;strokeColor=#000000;" vertex="1" parent="60KGcx6HvtttfVHuBGyP-364">
          <mxGeometry x="868" y="1895" width="10" height="135" as="geometry" />
        </mxCell>
        <mxCell id="60KGcx6HvtttfVHuBGyP-338" value="" style="line;strokeWidth=2;direction=south;html=1;hachureGap=4;fontFamily=Architects Daughter;fontSource=https://fonts.googleapis.com/css?family=Architects+Daughter;strokeColor=#000000;" vertex="1" parent="60KGcx6HvtttfVHuBGyP-364">
          <mxGeometry x="644" y="1890" width="10" height="60" as="geometry" />
        </mxCell>
        <mxCell id="60KGcx6HvtttfVHuBGyP-339" value="" style="line;strokeWidth=2;direction=south;html=1;hachureGap=4;fontFamily=Architects Daughter;fontSource=https://fonts.googleapis.com/css?family=Architects+Daughter;strokeColor=#000000;" vertex="1" parent="60KGcx6HvtttfVHuBGyP-364">
          <mxGeometry x="641.5" y="1780" width="10" height="30" as="geometry" />
        </mxCell>
        <mxCell id="60KGcx6HvtttfVHuBGyP-340" value="" style="line;strokeWidth=2;direction=south;html=1;hachureGap=4;fontFamily=Architects Daughter;fontSource=https://fonts.googleapis.com/css?family=Architects+Daughter;strokeColor=#000000;" vertex="1" parent="60KGcx6HvtttfVHuBGyP-364">
          <mxGeometry x="644" y="1990" width="10" height="40" as="geometry" />
        </mxCell>
        <mxCell id="60KGcx6HvtttfVHuBGyP-342" value="" style="line;strokeWidth=2;direction=south;html=1;hachureGap=4;fontFamily=Architects Daughter;fontSource=https://fonts.googleapis.com/css?family=Architects+Daughter;strokeColor=#000000;" vertex="1" parent="60KGcx6HvtttfVHuBGyP-364">
          <mxGeometry x="644.5" y="2230" width="10" height="30" as="geometry" />
        </mxCell>
        <mxCell id="60KGcx6HvtttfVHuBGyP-343" value="" style="line;strokeWidth=2;direction=south;html=1;hachureGap=4;fontFamily=Architects Daughter;fontSource=https://fonts.googleapis.com/css?family=Architects+Daughter;strokeColor=#000000;" vertex="1" parent="60KGcx6HvtttfVHuBGyP-364">
          <mxGeometry x="641.5" y="1685" width="10" height="55" as="geometry" />
        </mxCell>
        <mxCell id="60KGcx6HvtttfVHuBGyP-348" value="" style="line;strokeWidth=2;html=1;perimeter=backbonePerimeter;points=[];outlineConnect=0;hachureGap=4;fontFamily=Architects Daughter;fontSource=https://fonts.googleapis.com/css?family=Architects+Daughter;strokeColor=#000000;" vertex="1" parent="60KGcx6HvtttfVHuBGyP-364">
          <mxGeometry x="829" y="2350" width="50" height="10" as="geometry" />
        </mxCell>
        <mxCell id="60KGcx6HvtttfVHuBGyP-349" value="" style="line;strokeWidth=2;html=1;perimeter=backbonePerimeter;points=[];outlineConnect=0;hachureGap=4;fontFamily=Architects Daughter;fontSource=https://fonts.googleapis.com/css?family=Architects+Daughter;strokeColor=#000000;" vertex="1" parent="60KGcx6HvtttfVHuBGyP-364">
          <mxGeometry x="828.5" y="2120" width="50" height="10" as="geometry" />
        </mxCell>
        <mxCell id="60KGcx6HvtttfVHuBGyP-350" value="" style="line;strokeWidth=2;html=1;perimeter=backbonePerimeter;points=[];outlineConnect=0;hachureGap=4;fontFamily=Architects Daughter;fontSource=https://fonts.googleapis.com/css?family=Architects+Daughter;strokeColor=#000000;" vertex="1" parent="60KGcx6HvtttfVHuBGyP-364">
          <mxGeometry x="648.5" y="2120" width="50" height="10" as="geometry" />
        </mxCell>
        <mxCell id="60KGcx6HvtttfVHuBGyP-351" value="" style="line;strokeWidth=2;html=1;perimeter=backbonePerimeter;points=[];outlineConnect=0;hachureGap=4;fontFamily=Architects Daughter;fontSource=https://fonts.googleapis.com/css?family=Architects+Daughter;strokeColor=#000000;" vertex="1" parent="60KGcx6HvtttfVHuBGyP-364">
          <mxGeometry x="648.5" y="2256" width="221.5" height="10" as="geometry" />
        </mxCell>
        <mxCell id="60KGcx6HvtttfVHuBGyP-352" value="" style="line;strokeWidth=2;html=1;perimeter=backbonePerimeter;points=[];outlineConnect=0;hachureGap=4;fontFamily=Architects Daughter;fontSource=https://fonts.googleapis.com/css?family=Architects+Daughter;strokeColor=#000000;" vertex="1" parent="60KGcx6HvtttfVHuBGyP-364">
          <mxGeometry x="647.5" y="2350" width="50" height="10" as="geometry" />
        </mxCell>
        <mxCell id="60KGcx6HvtttfVHuBGyP-353" value="" style="line;strokeWidth=2;html=1;perimeter=backbonePerimeter;points=[];outlineConnect=0;hachureGap=4;fontFamily=Architects Daughter;fontSource=https://fonts.googleapis.com/css?family=Architects+Daughter;strokeColor=#000000;" vertex="1" parent="60KGcx6HvtttfVHuBGyP-364">
          <mxGeometry x="440" y="2546" width="320" height="10" as="geometry" />
        </mxCell>
        <mxCell id="60KGcx6HvtttfVHuBGyP-354" value="" style="line;strokeWidth=2;html=1;perimeter=backbonePerimeter;points=[];outlineConnect=0;hachureGap=4;fontFamily=Architects Daughter;fontSource=https://fonts.googleapis.com/css?family=Architects+Daughter;strokeColor=#000000;" vertex="1" parent="60KGcx6HvtttfVHuBGyP-364">
          <mxGeometry x="648.5" y="2494" width="231.5" height="10" as="geometry" />
        </mxCell>
        <mxCell id="60KGcx6HvtttfVHuBGyP-355" value="" style="line;strokeWidth=2;direction=south;html=1;hachureGap=4;fontFamily=Architects Daughter;fontSource=https://fonts.googleapis.com/css?family=Architects+Daughter;strokeColor=#000000;" vertex="1" parent="60KGcx6HvtttfVHuBGyP-364">
          <mxGeometry x="644" y="2353" width="10" height="67" as="geometry" />
        </mxCell>
        <mxCell id="60KGcx6HvtttfVHuBGyP-357" value="" style="line;strokeWidth=2;direction=south;html=1;hachureGap=4;fontFamily=Architects Daughter;fontSource=https://fonts.googleapis.com/css?family=Architects+Daughter;strokeColor=#000000;" vertex="1" parent="60KGcx6HvtttfVHuBGyP-364">
          <mxGeometry x="870" y="2124" width="10" height="136" as="geometry" />
        </mxCell>
        <mxCell id="60KGcx6HvtttfVHuBGyP-358" value="" style="line;strokeWidth=2;direction=south;html=1;hachureGap=4;fontFamily=Architects Daughter;fontSource=https://fonts.googleapis.com/css?family=Architects+Daughter;strokeColor=#000000;" vertex="1" parent="60KGcx6HvtttfVHuBGyP-364">
          <mxGeometry x="644" y="2124" width="10" height="66" as="geometry" />
        </mxCell>
        <mxCell id="60KGcx6HvtttfVHuBGyP-360" value="" style="line;strokeWidth=2;direction=south;html=1;hachureGap=4;fontFamily=Architects Daughter;fontSource=https://fonts.googleapis.com/css?family=Architects+Daughter;strokeColor=#000000;" vertex="1" parent="60KGcx6HvtttfVHuBGyP-364">
          <mxGeometry x="595" y="2550" width="10" height="40" as="geometry" />
        </mxCell>
        <mxCell id="60KGcx6HvtttfVHuBGyP-361" value="" style="line;strokeWidth=2;direction=south;html=1;hachureGap=4;fontFamily=Architects Daughter;fontSource=https://fonts.googleapis.com/css?family=Architects+Daughter;strokeColor=#000000;" vertex="1" parent="60KGcx6HvtttfVHuBGyP-364">
          <mxGeometry x="757.25" y="2500" width="10" height="50" as="geometry" />
        </mxCell>
        <mxCell id="60KGcx6HvtttfVHuBGyP-362" value="" style="line;strokeWidth=2;direction=south;html=1;hachureGap=4;fontFamily=Architects Daughter;fontSource=https://fonts.googleapis.com/css?family=Architects+Daughter;strokeColor=#000000;" vertex="1" parent="60KGcx6HvtttfVHuBGyP-364">
          <mxGeometry x="644" y="2460" width="10" height="40" as="geometry" />
        </mxCell>
      </root>
    </mxGraphModel>
  </diagram>
</mxfile>
